<?xml version="1.0" encoding="UTF-8"?>
<svg xmlns="http://www.w3.org/2000/svg" xmlns:xlink="http://www.w3.org/1999/xlink" width="206" height="188" viewBox="0 0 206 188">
<rect x="-20.6" y="-18.8" width="247.2" height="225.6" fill="rgb(100%, 100%, 100%)" fill-opacity="1"/>
<path fill="none" stroke-width="1" stroke-linecap="butt" stroke-linejoin="miter" stroke="rgb(0%, 0%, 0%)" stroke-opacity="1" stroke-miterlimit="4" d="M 126 -162 C 126 -152.058594 113.910156 -144 99 -144 C 84.089844 -144 72 -152.058594 72 -162 C 72 -171.941406 84.089844 -180 99 -180 C 113.910156 -180 126 -171.941406 126 -162 Z M 126 -162 " transform="matrix(1, 0, 0, 1, 4, 184)"/>
<path fill-rule="nonzero" fill="rgb(0%, 0%, 0%)" fill-opacity="1" d="M 90.453125 22.324219 C 90.449219 22.53125 90.417969 22.730469 90.355469 22.925781 C 90.289062 23.125 90.195312 23.289062 90.078125 23.421875 C 89.9375 23.578125 89.78125 23.695312 89.609375 23.769531 C 89.429688 23.84375 89.230469 23.878906 89.011719 23.882812 C 88.824219 23.878906 88.648438 23.847656 88.484375 23.78125 C 88.316406 23.714844 88.171875 23.613281 88.042969 23.476562 C 87.914062 23.347656 87.8125 23.1875 87.738281 23 C 87.660156 22.8125 87.621094 22.601562 87.625 22.363281 C 87.621094 21.914062 87.753906 21.546875 88.019531 21.257812 C 88.28125 20.976562 88.625 20.832031 89.054688 20.828125 C 89.457031 20.832031 89.792969 20.96875 90.058594 21.238281 C 90.320312 21.511719 90.449219 21.875 90.453125 22.324219 Z M 89.84375 22.328125 C 89.839844 22.183594 89.828125 22.03125 89.800781 21.867188 C 89.769531 21.707031 89.722656 21.566406 89.667969 21.449219 C 89.601562 21.332031 89.519531 21.234375 89.421875 21.160156 C 89.316406 21.085938 89.195312 21.050781 89.050781 21.046875 C 88.898438 21.050781 88.769531 21.085938 88.664062 21.160156 C 88.554688 21.238281 88.464844 21.339844 88.402344 21.464844 C 88.335938 21.585938 88.292969 21.722656 88.269531 21.875 C 88.242188 22.027344 88.230469 22.175781 88.234375 22.3125 C 88.230469 22.503906 88.246094 22.675781 88.277344 22.835938 C 88.308594 22.996094 88.355469 23.140625 88.425781 23.261719 C 88.488281 23.390625 88.574219 23.488281 88.675781 23.558594 C 88.777344 23.632812 88.902344 23.667969 89.050781 23.664062 C 89.292969 23.667969 89.484375 23.550781 89.628906 23.308594 C 89.769531 23.074219 89.839844 22.746094 89.84375 22.328125 Z M 93.800781 22.351562 C 93.796875 22.785156 93.660156 23.148438 93.390625 23.441406 C 93.113281 23.734375 92.796875 23.878906 92.4375 23.882812 C 92.277344 23.878906 92.121094 23.855469 91.96875 23.808594 C 91.816406 23.761719 91.671875 23.699219 91.539062 23.617188 L 91.320312 23.953125 L 91.140625 23.910156 C 91.148438 23.765625 91.15625 23.597656 91.160156 23.390625 C 91.160156 23.191406 91.160156 22.992188 91.164062 22.800781 L 91.164062 19.9375 C 91.160156 19.875 91.144531 19.808594 91.117188 19.742188 C 91.085938 19.675781 91.046875 19.628906 91.003906 19.597656 C 90.964844 19.574219 90.902344 19.554688 90.816406 19.539062 C 90.726562 19.527344 90.660156 19.519531 90.609375 19.515625 L 90.609375 19.328125 L 91.671875 19.261719 L 91.710938 19.304688 L 91.710938 21.210938 L 91.730469 21.214844 C 91.847656 21.089844 91.980469 20.992188 92.128906 20.925781 C 92.269531 20.863281 92.410156 20.832031 92.550781 20.828125 C 92.902344 20.832031 93.199219 20.972656 93.441406 21.25 C 93.675781 21.535156 93.796875 21.902344 93.800781 22.351562 Z M 93.1875 22.371094 C 93.1875 22.230469 93.171875 22.082031 93.140625 21.929688 C 93.109375 21.78125 93.058594 21.648438 92.992188 21.535156 C 92.925781 21.425781 92.839844 21.335938 92.730469 21.261719 C 92.621094 21.195312 92.492188 21.160156 92.347656 21.15625 C 92.207031 21.160156 92.085938 21.1875 91.988281 21.238281 C 91.882812 21.292969 91.792969 21.363281 91.710938 21.453125 L 91.710938 23.132812 C 91.71875 23.183594 91.738281 23.238281 91.777344 23.296875 C 91.808594 23.363281 91.855469 23.421875 91.917969 23.476562 C 91.972656 23.535156 92.039062 23.582031 92.117188 23.613281 C 92.1875 23.652344 92.28125 23.667969 92.390625 23.664062 C 92.628906 23.667969 92.820312 23.550781 92.96875 23.316406 C 93.113281 23.085938 93.1875 22.773438 93.1875 22.371094 Z M 96.132812 22.382812 C 96.210938 22.457031 96.273438 22.535156 96.316406 22.625 C 96.359375 22.71875 96.382812 22.832031 96.382812 22.960938 C 96.382812 23.230469 96.28125 23.449219 96.082031 23.621094 C 95.878906 23.789062 95.621094 23.871094 95.304688 23.875 C 95.136719 23.871094 94.980469 23.84375 94.839844 23.785156 C 94.695312 23.722656 94.59375 23.667969 94.539062 23.617188 L 94.476562 23.804688 L 94.257812 23.804688 L 94.230469 22.800781 L 94.429688 22.800781 C 94.441406 22.878906 94.476562 22.96875 94.53125 23.070312 C 94.582031 23.171875 94.640625 23.265625 94.714844 23.34375 C 94.785156 23.433594 94.878906 23.503906 94.988281 23.5625 C 95.09375 23.621094 95.210938 23.652344 95.347656 23.648438 C 95.53125 23.652344 95.675781 23.609375 95.78125 23.523438 C 95.878906 23.441406 95.929688 23.320312 95.933594 23.15625 C 95.929688 23.078125 95.914062 23.003906 95.882812 22.941406 C 95.847656 22.882812 95.800781 22.832031 95.742188 22.785156 C 95.675781 22.742188 95.597656 22.703125 95.507812 22.664062 C 95.410156 22.632812 95.304688 22.597656 95.195312 22.558594 C 95.097656 22.535156 94.996094 22.496094 94.886719 22.445312 C 94.773438 22.402344 94.675781 22.347656 94.597656 22.277344 C 94.507812 22.210938 94.4375 22.125 94.386719 22.023438 C 94.328125 21.925781 94.300781 21.808594 94.304688 21.671875 C 94.300781 21.441406 94.390625 21.242188 94.566406 21.074219 C 94.742188 20.914062 94.976562 20.832031 95.273438 20.828125 C 95.386719 20.832031 95.503906 20.847656 95.621094 20.871094 C 95.738281 20.902344 95.832031 20.9375 95.910156 20.976562 L 95.976562 20.824219 L 96.1875 20.824219 L 96.234375 21.75 L 96.03125 21.75 C 95.988281 21.546875 95.898438 21.378906 95.765625 21.246094 C 95.628906 21.117188 95.464844 21.050781 95.269531 21.046875 C 95.109375 21.050781 94.980469 21.089844 94.890625 21.167969 C 94.796875 21.25 94.753906 21.347656 94.753906 21.460938 C 94.753906 21.550781 94.765625 21.625 94.796875 21.683594 C 94.824219 21.742188 94.871094 21.792969 94.9375 21.832031 C 94.992188 21.875 95.066406 21.910156 95.15625 21.941406 C 95.242188 21.976562 95.351562 22.015625 95.484375 22.054688 C 95.613281 22.101562 95.734375 22.148438 95.851562 22.199219 C 95.960938 22.257812 96.054688 22.320312 96.132812 22.382812 Z M 99.386719 23.117188 C 99.261719 23.347656 99.097656 23.53125 98.898438 23.667969 C 98.691406 23.804688 98.457031 23.871094 98.199219 23.875 C 97.964844 23.871094 97.761719 23.832031 97.589844 23.75 C 97.410156 23.667969 97.265625 23.558594 97.15625 23.414062 C 97.039062 23.277344 96.957031 23.113281 96.902344 22.921875 C 96.847656 22.738281 96.820312 22.539062 96.820312 22.328125 C 96.820312 22.144531 96.847656 21.960938 96.910156 21.777344 C 96.964844 21.601562 97.054688 21.4375 97.171875 21.289062 C 97.28125 21.152344 97.417969 21.042969 97.585938 20.957031 C 97.75 20.875 97.933594 20.832031 98.140625 20.828125 C 98.347656 20.832031 98.53125 20.863281 98.683594 20.925781 C 98.832031 20.992188 98.953125 21.085938 99.050781 21.199219 C 99.136719 21.3125 99.203125 21.441406 99.25 21.585938 C 99.292969 21.738281 99.316406 21.898438 99.316406 22.070312 L 99.316406 22.261719 L 97.402344 22.261719 C 97.398438 22.453125 97.417969 22.628906 97.457031 22.78125 C 97.492188 22.9375 97.550781 23.070312 97.628906 23.1875 C 97.703125 23.300781 97.800781 23.390625 97.925781 23.457031 C 98.046875 23.523438 98.195312 23.558594 98.367188 23.554688 C 98.539062 23.558594 98.6875 23.515625 98.816406 23.433594 C 98.941406 23.351562 99.0625 23.207031 99.179688 22.992188 Z M 98.738281 22.015625 C 98.734375 21.90625 98.726562 21.789062 98.710938 21.664062 C 98.691406 21.539062 98.660156 21.4375 98.621094 21.351562 C 98.574219 21.265625 98.515625 21.191406 98.4375 21.132812 C 98.359375 21.078125 98.257812 21.050781 98.136719 21.046875 C 97.929688 21.050781 97.757812 21.136719 97.625 21.304688 C 97.484375 21.476562 97.410156 21.710938 97.402344 22.015625 Z M 101.929688 21.28125 C 101.925781 21.382812 101.902344 21.46875 101.855469 21.546875 C 101.804688 21.625 101.730469 21.664062 101.632812 21.660156 C 101.519531 21.664062 101.4375 21.636719 101.382812 21.578125 C 101.324219 21.523438 101.292969 21.460938 101.296875 21.390625 C 101.292969 21.347656 101.296875 21.308594 101.304688 21.273438 C 101.308594 21.238281 101.316406 21.203125 101.324219 21.164062 C 101.230469 21.167969 101.121094 21.203125 101 21.277344 C 100.875 21.355469 100.769531 21.460938 100.6875 21.59375 L 100.6875 23.273438 C 100.683594 23.347656 100.699219 23.402344 100.726562 23.445312 C 100.75 23.488281 100.789062 23.519531 100.851562 23.539062 C 100.898438 23.5625 100.960938 23.578125 101.039062 23.585938 C 101.113281 23.59375 101.183594 23.601562 101.242188 23.601562 L 101.242188 23.796875 L 99.71875 23.796875 L 99.71875 23.601562 C 99.761719 23.601562 99.804688 23.597656 99.855469 23.59375 C 99.902344 23.589844 99.945312 23.582031 99.984375 23.570312 C 100.03125 23.554688 100.070312 23.523438 100.101562 23.476562 C 100.125 23.433594 100.140625 23.375 100.144531 23.304688 L 100.144531 21.523438 C 100.140625 21.464844 100.125 21.40625 100.101562 21.347656 C 100.070312 21.289062 100.03125 21.242188 99.984375 21.203125 C 99.941406 21.183594 99.898438 21.167969 99.847656 21.152344 C 99.796875 21.144531 99.742188 21.136719 99.6875 21.132812 L 99.6875 20.9375 L 100.648438 20.875 L 100.6875 20.914062 L 100.6875 21.320312 L 100.703125 21.320312 C 100.820312 21.167969 100.953125 21.046875 101.105469 20.960938 C 101.25 20.878906 101.386719 20.839844 101.515625 20.835938 C 101.636719 20.839844 101.734375 20.878906 101.8125 20.957031 C 101.886719 21.039062 101.925781 21.148438 101.929688 21.28125 Z M 105.03125 21.085938 C 104.941406 21.105469 104.859375 21.136719 104.78125 21.183594 C 104.703125 21.230469 104.632812 21.316406 104.578125 21.4375 C 104.460938 21.699219 104.34375 21.972656 104.222656 22.253906 C 104.097656 22.542969 103.96875 22.839844 103.835938 23.148438 C 103.796875 23.242188 103.757812 23.347656 103.714844 23.46875 C 103.667969 23.59375 103.625 23.710938 103.59375 23.824219 L 103.363281 23.824219 C 103.175781 23.363281 103.003906 22.945312 102.851562 22.566406 C 102.691406 22.191406 102.527344 21.804688 102.363281 21.40625 C 102.320312 21.320312 102.257812 21.253906 102.175781 21.199219 C 102.085938 21.152344 102.003906 21.117188 101.914062 21.101562 L 101.914062 20.90625 L 103.25 20.90625 L 103.25 21.113281 C 103.1875 21.117188 103.113281 21.132812 103.027344 21.152344 C 102.9375 21.175781 102.894531 21.203125 102.898438 21.242188 C 102.894531 21.25 102.898438 21.265625 102.910156 21.289062 C 102.917969 21.3125 102.929688 21.339844 102.941406 21.371094 C 103.019531 21.570312 103.132812 21.851562 103.28125 22.207031 C 103.425781 22.566406 103.542969 22.851562 103.636719 23.066406 C 103.703125 22.902344 103.792969 22.695312 103.902344 22.441406 C 104.007812 22.195312 104.121094 21.914062 104.246094 21.605469 C 104.265625 21.554688 104.285156 21.507812 104.300781 21.457031 C 104.316406 21.414062 104.324219 21.367188 104.328125 21.316406 C 104.324219 21.289062 104.308594 21.257812 104.28125 21.230469 C 104.246094 21.203125 104.207031 21.179688 104.164062 21.160156 C 104.117188 21.140625 104.074219 21.128906 104.03125 21.117188 C 103.988281 21.109375 103.953125 21.101562 103.929688 21.09375 L 103.929688 20.90625 L 105.03125 20.90625 Z M 107.890625 23.742188 C 107.796875 23.78125 107.714844 23.804688 107.648438 23.824219 C 107.578125 23.84375 107.5 23.855469 107.414062 23.855469 C 107.257812 23.855469 107.136719 23.820312 107.050781 23.75 C 106.957031 23.679688 106.898438 23.578125 106.875 23.4375 L 106.859375 23.4375 C 106.730469 23.582031 106.59375 23.6875 106.449219 23.761719 C 106.300781 23.832031 106.125 23.867188 105.921875 23.871094 C 105.703125 23.867188 105.523438 23.804688 105.386719 23.671875 C 105.246094 23.542969 105.179688 23.367188 105.179688 23.148438 C 105.179688 23.042969 105.195312 22.945312 105.226562 22.851562 C 105.257812 22.765625 105.304688 22.683594 105.367188 22.613281 C 105.414062 22.554688 105.476562 22.503906 105.558594 22.457031 C 105.636719 22.414062 105.710938 22.378906 105.785156 22.347656 C 105.871094 22.316406 106.050781 22.253906 106.320312 22.164062 C 106.585938 22.074219 106.765625 22.003906 106.863281 21.953125 L 106.863281 21.660156 C 106.859375 21.640625 106.855469 21.59375 106.847656 21.515625 C 106.835938 21.445312 106.8125 21.375 106.78125 21.308594 C 106.734375 21.242188 106.679688 21.179688 106.613281 21.121094 C 106.539062 21.070312 106.4375 21.042969 106.3125 21.039062 C 106.21875 21.042969 106.136719 21.058594 106.058594 21.085938 C 105.980469 21.121094 105.925781 21.152344 105.898438 21.179688 C 105.894531 21.222656 105.902344 21.28125 105.925781 21.355469 C 105.941406 21.433594 105.953125 21.503906 105.953125 21.5625 C 105.953125 21.636719 105.921875 21.699219 105.859375 21.753906 C 105.796875 21.8125 105.710938 21.839844 105.605469 21.835938 C 105.503906 21.839844 105.429688 21.804688 105.386719 21.734375 C 105.339844 21.664062 105.320312 21.585938 105.320312 21.5 C 105.320312 21.414062 105.351562 21.328125 105.414062 21.242188 C 105.476562 21.160156 105.558594 21.089844 105.664062 21.023438 C 105.75 20.972656 105.855469 20.925781 105.984375 20.886719 C 106.105469 20.851562 106.226562 20.832031 106.347656 20.828125 C 106.507812 20.832031 106.652344 20.84375 106.777344 20.863281 C 106.898438 20.886719 107.007812 20.933594 107.109375 21.003906 C 107.203125 21.078125 107.28125 21.175781 107.335938 21.300781 C 107.386719 21.425781 107.410156 21.585938 107.414062 21.777344 C 107.410156 22.058594 107.410156 22.304688 107.40625 22.519531 C 107.398438 22.738281 107.394531 22.976562 107.398438 23.226562 C 107.394531 23.308594 107.40625 23.367188 107.4375 23.410156 C 107.460938 23.457031 107.503906 23.496094 107.558594 23.523438 C 107.585938 23.542969 107.628906 23.554688 107.695312 23.554688 C 107.757812 23.558594 107.824219 23.558594 107.890625 23.554688 Z M 106.871094 22.195312 C 106.703125 22.25 106.558594 22.296875 106.433594 22.339844 C 106.308594 22.390625 106.191406 22.449219 106.085938 22.515625 C 105.984375 22.585938 105.90625 22.664062 105.851562 22.753906 C 105.792969 22.847656 105.765625 22.957031 105.769531 23.078125 C 105.765625 23.242188 105.808594 23.363281 105.894531 23.4375 C 105.980469 23.515625 106.085938 23.550781 106.21875 23.550781 C 106.355469 23.550781 106.480469 23.519531 106.585938 23.449219 C 106.6875 23.386719 106.773438 23.304688 106.851562 23.210938 Z M 109.964844 23.671875 C 109.835938 23.726562 109.714844 23.765625 109.601562 23.804688 C 109.488281 23.835938 109.351562 23.855469 109.1875 23.859375 C 108.945312 23.855469 108.773438 23.796875 108.675781 23.675781 C 108.574219 23.554688 108.523438 23.382812 108.527344 23.15625 L 108.527344 21.203125 L 108.007812 21.203125 L 108.007812 20.921875 L 108.539062 20.921875 L 108.539062 20.019531 L 109.074219 20.019531 L 109.074219 20.921875 L 109.902344 20.921875 L 109.902344 21.203125 L 109.078125 21.203125 L 109.078125 22.816406 C 109.074219 22.941406 109.078125 23.042969 109.089844 23.121094 C 109.097656 23.207031 109.121094 23.277344 109.15625 23.332031 C 109.183594 23.390625 109.230469 23.433594 109.296875 23.460938 C 109.355469 23.492188 109.4375 23.503906 109.546875 23.503906 C 109.59375 23.503906 109.667969 23.5 109.761719 23.492188 C 109.855469 23.484375 109.921875 23.472656 109.964844 23.457031 Z M 111.652344 23.796875 L 110.261719 23.796875 L 110.261719 23.601562 C 110.300781 23.601562 110.347656 23.597656 110.398438 23.59375 C 110.445312 23.589844 110.488281 23.582031 110.523438 23.570312 C 110.578125 23.554688 110.617188 23.523438 110.644531 23.476562 C 110.667969 23.433594 110.679688 23.375 110.683594 23.304688 L 110.683594 21.523438 C 110.679688 21.460938 110.667969 21.40625 110.640625 21.351562 C 110.609375 21.304688 110.570312 21.261719 110.523438 21.222656 C 110.484375 21.203125 110.429688 21.183594 110.363281 21.164062 C 110.289062 21.148438 110.222656 21.136719 110.167969 21.132812 L 110.167969 20.9375 L 111.1875 20.875 L 111.230469 20.914062 L 111.230469 23.269531 C 111.226562 23.339844 111.238281 23.398438 111.269531 23.441406 C 111.292969 23.488281 111.335938 23.519531 111.390625 23.539062 C 111.433594 23.558594 111.472656 23.574219 111.515625 23.582031 C 111.554688 23.59375 111.601562 23.601562 111.652344 23.601562 Z M 111.289062 19.734375 C 111.285156 19.847656 111.246094 19.941406 111.175781 20.023438 C 111.097656 20.109375 111.007812 20.152344 110.90625 20.148438 C 110.804688 20.152344 110.71875 20.113281 110.648438 20.03125 C 110.570312 19.957031 110.535156 19.867188 110.539062 19.757812 C 110.535156 19.65625 110.570312 19.5625 110.648438 19.480469 C 110.71875 19.402344 110.804688 19.363281 110.90625 19.359375 C 111.015625 19.363281 111.109375 19.398438 111.179688 19.472656 C 111.25 19.550781 111.285156 19.640625 111.289062 19.734375 Z M 114.832031 22.324219 C 114.828125 22.53125 114.796875 22.730469 114.734375 22.925781 C 114.667969 23.125 114.574219 23.289062 114.457031 23.421875 C 114.316406 23.578125 114.160156 23.695312 113.988281 23.769531 C 113.808594 23.84375 113.609375 23.878906 113.390625 23.882812 C 113.203125 23.878906 113.027344 23.847656 112.863281 23.78125 C 112.695312 23.714844 112.550781 23.613281 112.421875 23.476562 C 112.292969 23.347656 112.191406 23.1875 112.117188 23 C 112.039062 22.8125 112 22.601562 112.003906 22.363281 C 112 21.914062 112.132812 21.546875 112.398438 21.257812 C 112.660156 20.976562 113.003906 20.832031 113.433594 20.828125 C 113.835938 20.832031 114.171875 20.96875 114.4375 21.238281 C 114.699219 21.511719 114.828125 21.875 114.832031 22.324219 Z M 114.222656 22.328125 C 114.21875 22.183594 114.207031 22.03125 114.179688 21.867188 C 114.148438 21.707031 114.101562 21.566406 114.046875 21.449219 C 113.980469 21.332031 113.898438 21.234375 113.800781 21.160156 C 113.695312 21.085938 113.574219 21.050781 113.429688 21.046875 C 113.277344 21.050781 113.148438 21.085938 113.042969 21.160156 C 112.933594 21.238281 112.84375 21.339844 112.78125 21.464844 C 112.714844 21.585938 112.671875 21.722656 112.648438 21.875 C 112.621094 22.027344 112.609375 22.175781 112.613281 22.3125 C 112.609375 22.503906 112.625 22.675781 112.65625 22.835938 C 112.6875 22.996094 112.734375 23.140625 112.804688 23.261719 C 112.867188 23.390625 112.953125 23.488281 113.054688 23.558594 C 113.15625 23.632812 113.28125 23.667969 113.429688 23.664062 C 113.671875 23.667969 113.863281 23.550781 114.007812 23.308594 C 114.148438 23.074219 114.21875 22.746094 114.222656 22.328125 Z M 118.4375 23.796875 L 117.023438 23.796875 L 117.023438 23.601562 C 117.0625 23.601562 117.113281 23.597656 117.171875 23.59375 C 117.222656 23.589844 117.265625 23.582031 117.304688 23.570312 C 117.355469 23.554688 117.398438 23.523438 117.425781 23.476562 C 117.449219 23.433594 117.460938 23.375 117.464844 23.304688 L 117.464844 21.820312 C 117.460938 21.617188 117.414062 21.457031 117.320312 21.347656 C 117.222656 21.238281 117.105469 21.183594 116.96875 21.179688 C 116.863281 21.183594 116.765625 21.199219 116.683594 21.226562 C 116.59375 21.261719 116.519531 21.300781 116.453125 21.34375 C 116.386719 21.394531 116.332031 21.445312 116.296875 21.492188 C 116.257812 21.546875 116.230469 21.585938 116.214844 21.613281 L 116.214844 23.273438 C 116.210938 23.34375 116.226562 23.398438 116.253906 23.441406 C 116.28125 23.484375 116.320312 23.515625 116.378906 23.539062 C 116.417969 23.5625 116.464844 23.578125 116.511719 23.585938 C 116.558594 23.59375 116.605469 23.601562 116.660156 23.601562 L 116.660156 23.796875 L 115.246094 23.796875 L 115.246094 23.601562 C 115.289062 23.601562 115.332031 23.597656 115.382812 23.59375 C 115.429688 23.589844 115.472656 23.582031 115.511719 23.570312 C 115.558594 23.554688 115.597656 23.523438 115.628906 23.476562 C 115.652344 23.433594 115.667969 23.375 115.671875 23.304688 L 115.671875 21.523438 C 115.667969 21.457031 115.652344 21.398438 115.628906 21.339844 C 115.597656 21.289062 115.558594 21.242188 115.511719 21.203125 C 115.46875 21.183594 115.425781 21.167969 115.375 21.152344 C 115.324219 21.144531 115.269531 21.136719 115.214844 21.132812 L 115.214844 20.9375 L 116.175781 20.875 L 116.214844 20.914062 L 116.214844 21.320312 L 116.230469 21.320312 C 116.277344 21.277344 116.335938 21.222656 116.40625 21.152344 C 116.476562 21.089844 116.542969 21.035156 116.605469 20.992188 C 116.675781 20.949219 116.761719 20.910156 116.863281 20.875 C 116.960938 20.847656 117.070312 20.832031 117.199219 20.828125 C 117.472656 20.832031 117.679688 20.917969 117.816406 21.089844 C 117.949219 21.261719 118.015625 21.492188 118.019531 21.777344 L 118.019531 23.28125 C 118.015625 23.351562 118.027344 23.40625 118.054688 23.445312 C 118.074219 23.488281 118.113281 23.523438 118.171875 23.546875 C 118.214844 23.566406 118.257812 23.578125 118.292969 23.585938 C 118.328125 23.59375 118.375 23.601562 118.4375 23.601562 Z M 87.421875 18.296875 "/>
<path fill="none" stroke-width="1" stroke-linecap="butt" stroke-linejoin="miter" stroke="rgb(0%, 0%, 0%)" stroke-opacity="1" stroke-miterlimit="4" d="M 198 -90 C 198 -80.058594 185.910156 -72 171 -72 C 156.089844 -72 144 -80.058594 144 -90 C 144 -99.941406 156.089844 -108 171 -108 C 185.910156 -108 198 -99.941406 198 -90 Z M 198 -90 " transform="matrix(1, 0, 0, 1, 4, 184)"/>
<path fill-rule="nonzero" fill="rgb(0%, 0%, 0%)" fill-opacity="1" d="M 163.84375 95.796875 L 162.453125 95.796875 L 162.453125 95.601562 C 162.492188 95.601562 162.539062 95.597656 162.589844 95.59375 C 162.636719 95.589844 162.679688 95.582031 162.714844 95.570312 C 162.769531 95.554688 162.808594 95.523438 162.835938 95.476562 C 162.859375 95.433594 162.871094 95.375 162.875 95.304688 L 162.875 93.523438 C 162.871094 93.460938 162.859375 93.40625 162.832031 93.351562 C 162.800781 93.304688 162.761719 93.261719 162.714844 93.222656 C 162.675781 93.203125 162.621094 93.183594 162.554688 93.164062 C 162.480469 93.148438 162.414062 93.136719 162.359375 93.132812 L 162.359375 92.9375 L 163.378906 92.875 L 163.421875 92.914062 L 163.421875 95.269531 C 163.417969 95.339844 163.429688 95.398438 163.460938 95.441406 C 163.484375 95.488281 163.527344 95.519531 163.582031 95.539062 C 163.625 95.558594 163.664062 95.574219 163.707031 95.582031 C 163.746094 95.59375 163.792969 95.601562 163.84375 95.601562 Z M 163.480469 91.734375 C 163.476562 91.847656 163.4375 91.941406 163.367188 92.023438 C 163.289062 92.109375 163.199219 92.152344 163.097656 92.148438 C 162.996094 92.152344 162.910156 92.113281 162.839844 92.03125 C 162.761719 91.957031 162.726562 91.867188 162.730469 91.757812 C 162.726562 91.65625 162.761719 91.5625 162.839844 91.480469 C 162.910156 91.402344 162.996094 91.363281 163.097656 91.359375 C 163.207031 91.363281 163.300781 91.398438 163.371094 91.472656 C 163.441406 91.550781 163.476562 91.640625 163.480469 91.734375 Z M 167.394531 95.796875 L 165.980469 95.796875 L 165.980469 95.601562 C 166.019531 95.601562 166.070312 95.597656 166.128906 95.59375 C 166.179688 95.589844 166.222656 95.582031 166.261719 95.570312 C 166.3125 95.554688 166.355469 95.523438 166.382812 95.476562 C 166.40625 95.433594 166.417969 95.375 166.421875 95.304688 L 166.421875 93.820312 C 166.417969 93.617188 166.371094 93.457031 166.277344 93.347656 C 166.179688 93.238281 166.0625 93.183594 165.925781 93.179688 C 165.820312 93.183594 165.722656 93.199219 165.640625 93.226562 C 165.550781 93.261719 165.476562 93.300781 165.410156 93.34375 C 165.34375 93.394531 165.289062 93.445312 165.253906 93.492188 C 165.214844 93.546875 165.1875 93.585938 165.171875 93.613281 L 165.171875 95.273438 C 165.167969 95.34375 165.183594 95.398438 165.210938 95.441406 C 165.238281 95.484375 165.277344 95.515625 165.335938 95.539062 C 165.375 95.5625 165.421875 95.578125 165.46875 95.585938 C 165.515625 95.59375 165.5625 95.601562 165.617188 95.601562 L 165.617188 95.796875 L 164.203125 95.796875 L 164.203125 95.601562 C 164.246094 95.601562 164.289062 95.597656 164.339844 95.59375 C 164.386719 95.589844 164.429688 95.582031 164.46875 95.570312 C 164.515625 95.554688 164.554688 95.523438 164.585938 95.476562 C 164.609375 95.433594 164.625 95.375 164.628906 95.304688 L 164.628906 93.523438 C 164.625 93.457031 164.609375 93.398438 164.585938 93.339844 C 164.554688 93.289062 164.515625 93.242188 164.46875 93.203125 C 164.425781 93.183594 164.382812 93.167969 164.332031 93.152344 C 164.28125 93.144531 164.226562 93.136719 164.171875 93.132812 L 164.171875 92.9375 L 165.132812 92.875 L 165.171875 92.914062 L 165.171875 93.320312 L 165.1875 93.320312 C 165.234375 93.277344 165.292969 93.222656 165.363281 93.152344 C 165.433594 93.089844 165.5 93.035156 165.5625 92.992188 C 165.632812 92.949219 165.71875 92.910156 165.820312 92.875 C 165.917969 92.847656 166.027344 92.832031 166.15625 92.828125 C 166.429688 92.832031 166.636719 92.917969 166.773438 93.089844 C 166.90625 93.261719 166.972656 93.492188 166.976562 93.777344 L 166.976562 95.28125 C 166.972656 95.351562 166.984375 95.40625 167.011719 95.445312 C 167.03125 95.488281 167.070312 95.523438 167.128906 95.546875 C 167.171875 95.566406 167.214844 95.578125 167.25 95.585938 C 167.285156 95.59375 167.332031 95.601562 167.394531 95.601562 Z M 170.914062 95.742188 L 169.902344 95.808594 L 169.859375 95.765625 L 169.859375 95.5 L 169.835938 95.492188 C 169.734375 95.609375 169.605469 95.703125 169.457031 95.773438 C 169.304688 95.84375 169.152344 95.878906 169 95.878906 C 168.832031 95.878906 168.675781 95.84375 168.523438 95.769531 C 168.367188 95.699219 168.234375 95.597656 168.125 95.460938 C 168.007812 95.328125 167.914062 95.164062 167.851562 94.972656 C 167.78125 94.785156 167.75 94.578125 167.75 94.347656 C 167.75 94.140625 167.785156 93.941406 167.855469 93.75 C 167.925781 93.566406 168.023438 93.402344 168.15625 93.257812 C 168.273438 93.132812 168.421875 93.027344 168.59375 92.945312 C 168.765625 92.871094 168.941406 92.832031 169.121094 92.828125 C 169.253906 92.832031 169.386719 92.847656 169.519531 92.878906 C 169.648438 92.914062 169.757812 92.960938 169.851562 93.011719 L 169.851562 92.003906 C 169.847656 91.925781 169.835938 91.851562 169.8125 91.78125 C 169.785156 91.71875 169.746094 91.664062 169.699219 91.625 C 169.640625 91.589844 169.566406 91.566406 169.476562 91.546875 C 169.378906 91.53125 169.277344 91.515625 169.175781 91.507812 L 169.175781 91.328125 L 170.359375 91.261719 L 170.40625 91.304688 L 170.40625 95.199219 C 170.402344 95.269531 170.417969 95.328125 170.445312 95.375 C 170.46875 95.421875 170.503906 95.464844 170.558594 95.496094 C 170.59375 95.523438 170.648438 95.535156 170.722656 95.539062 C 170.789062 95.546875 170.855469 95.550781 170.914062 95.550781 Z M 169.851562 95.238281 L 169.851562 93.546875 C 169.835938 93.496094 169.8125 93.441406 169.777344 93.382812 C 169.742188 93.328125 169.695312 93.277344 169.644531 93.222656 C 169.585938 93.175781 169.519531 93.132812 169.445312 93.101562 C 169.367188 93.070312 169.28125 93.054688 169.179688 93.050781 C 169.0625 93.054688 168.953125 93.085938 168.855469 93.144531 C 168.757812 93.207031 168.671875 93.292969 168.597656 93.402344 C 168.523438 93.515625 168.464844 93.65625 168.425781 93.820312 C 168.378906 93.992188 168.359375 94.179688 168.363281 94.382812 C 168.359375 94.550781 168.375 94.699219 168.410156 94.832031 C 168.4375 94.96875 168.488281 95.09375 168.566406 95.203125 C 168.628906 95.316406 168.71875 95.402344 168.828125 95.46875 C 168.933594 95.535156 169.058594 95.570312 169.207031 95.566406 C 169.359375 95.570312 169.488281 95.535156 169.59375 95.464844 C 169.695312 95.398438 169.78125 95.324219 169.851562 95.238281 Z M 174.292969 95.742188 L 173.347656 95.808594 L 173.304688 95.765625 L 173.304688 95.402344 L 173.289062 95.402344 C 173.238281 95.457031 173.1875 95.507812 173.128906 95.558594 C 173.070312 95.617188 173 95.667969 172.925781 95.710938 C 172.835938 95.765625 172.753906 95.800781 172.671875 95.828125 C 172.589844 95.851562 172.472656 95.867188 172.324219 95.871094 C 172.066406 95.867188 171.871094 95.785156 171.738281 95.621094 C 171.601562 95.457031 171.535156 95.214844 171.539062 94.894531 L 171.539062 93.511719 C 171.535156 93.441406 171.523438 93.382812 171.5 93.335938 C 171.472656 93.289062 171.433594 93.25 171.382812 93.210938 C 171.347656 93.191406 171.300781 93.171875 171.25 93.160156 C 171.195312 93.148438 171.140625 93.140625 171.085938 93.136719 L 171.085938 92.945312 L 172.046875 92.875 L 172.09375 92.914062 L 172.09375 94.921875 C 172.089844 95.132812 172.136719 95.289062 172.234375 95.394531 C 172.324219 95.5 172.4375 95.550781 172.570312 95.550781 C 172.675781 95.550781 172.769531 95.535156 172.855469 95.503906 C 172.9375 95.472656 173.007812 95.433594 173.066406 95.382812 C 173.117188 95.347656 173.164062 95.304688 173.207031 95.253906 C 173.242188 95.210938 173.273438 95.167969 173.296875 95.125 L 173.296875 93.492188 C 173.292969 93.429688 173.28125 93.371094 173.257812 93.320312 C 173.230469 93.273438 173.191406 93.230469 173.144531 93.191406 C 173.105469 93.171875 173.050781 93.15625 172.984375 93.148438 C 172.914062 93.144531 172.839844 93.140625 172.753906 93.136719 L 172.753906 92.945312 L 173.804688 92.875 L 173.851562 92.914062 L 173.851562 95.207031 C 173.847656 95.273438 173.863281 95.328125 173.890625 95.375 C 173.914062 95.421875 173.949219 95.464844 174.003906 95.496094 C 174.035156 95.519531 174.078125 95.53125 174.128906 95.539062 C 174.175781 95.546875 174.230469 95.550781 174.292969 95.550781 Z M 175.980469 95.875 C 175.5625 95.871094 175.234375 95.734375 175 95.457031 C 174.761719 95.179688 174.644531 94.808594 174.644531 94.339844 C 174.644531 94.140625 174.675781 93.953125 174.738281 93.773438 C 174.800781 93.601562 174.890625 93.4375 175.015625 93.289062 C 175.128906 93.152344 175.273438 93.042969 175.449219 92.957031 C 175.621094 92.875 175.8125 92.832031 176.019531 92.828125 C 176.296875 92.832031 176.527344 92.898438 176.707031 93.03125 C 176.886719 93.167969 176.976562 93.355469 176.976562 93.585938 C 176.976562 93.6875 176.953125 93.773438 176.90625 93.84375 C 176.859375 93.921875 176.78125 93.957031 176.675781 93.957031 C 176.558594 93.957031 176.46875 93.929688 176.40625 93.871094 C 176.339844 93.8125 176.308594 93.746094 176.3125 93.671875 C 176.308594 93.589844 176.320312 93.5 176.347656 93.40625 C 176.367188 93.3125 176.378906 93.246094 176.386719 93.199219 C 176.347656 93.144531 176.296875 93.101562 176.230469 93.078125 C 176.160156 93.058594 176.085938 93.050781 176.007812 93.046875 C 175.910156 93.050781 175.820312 93.070312 175.738281 93.109375 C 175.652344 93.152344 175.570312 93.226562 175.492188 93.328125 C 175.417969 93.429688 175.359375 93.5625 175.316406 93.726562 C 175.269531 93.898438 175.246094 94.09375 175.25 94.320312 C 175.246094 94.6875 175.328125 94.984375 175.492188 95.210938 C 175.652344 95.441406 175.863281 95.558594 176.125 95.554688 C 176.3125 95.558594 176.472656 95.511719 176.601562 95.417969 C 176.726562 95.328125 176.84375 95.1875 176.957031 95 L 177.144531 95.125 C 177.011719 95.355469 176.839844 95.539062 176.632812 95.671875 C 176.417969 95.808594 176.203125 95.871094 175.980469 95.875 Z M 179.152344 95.671875 C 179.023438 95.726562 178.902344 95.765625 178.789062 95.804688 C 178.675781 95.835938 178.539062 95.855469 178.375 95.859375 C 178.132812 95.855469 177.960938 95.796875 177.863281 95.675781 C 177.761719 95.554688 177.710938 95.382812 177.714844 95.15625 L 177.714844 93.203125 L 177.195312 93.203125 L 177.195312 92.921875 L 177.726562 92.921875 L 177.726562 92.019531 L 178.261719 92.019531 L 178.261719 92.921875 L 179.089844 92.921875 L 179.089844 93.203125 L 178.265625 93.203125 L 178.265625 94.816406 C 178.261719 94.941406 178.265625 95.042969 178.277344 95.121094 C 178.285156 95.207031 178.308594 95.277344 178.34375 95.332031 C 178.371094 95.390625 178.417969 95.433594 178.484375 95.460938 C 178.542969 95.492188 178.625 95.503906 178.734375 95.503906 C 178.78125 95.503906 178.855469 95.5 178.949219 95.492188 C 179.042969 95.484375 179.109375 95.472656 179.152344 95.457031 Z M 180.839844 95.796875 L 179.449219 95.796875 L 179.449219 95.601562 C 179.488281 95.601562 179.535156 95.597656 179.585938 95.59375 C 179.632812 95.589844 179.675781 95.582031 179.710938 95.570312 C 179.765625 95.554688 179.804688 95.523438 179.832031 95.476562 C 179.855469 95.433594 179.867188 95.375 179.871094 95.304688 L 179.871094 93.523438 C 179.867188 93.460938 179.855469 93.40625 179.828125 93.351562 C 179.796875 93.304688 179.757812 93.261719 179.710938 93.222656 C 179.671875 93.203125 179.617188 93.183594 179.550781 93.164062 C 179.476562 93.148438 179.410156 93.136719 179.355469 93.132812 L 179.355469 92.9375 L 180.375 92.875 L 180.417969 92.914062 L 180.417969 95.269531 C 180.414062 95.339844 180.425781 95.398438 180.457031 95.441406 C 180.480469 95.488281 180.523438 95.519531 180.578125 95.539062 C 180.621094 95.558594 180.660156 95.574219 180.703125 95.582031 C 180.742188 95.59375 180.789062 95.601562 180.839844 95.601562 Z M 180.476562 91.734375 C 180.472656 91.847656 180.433594 91.941406 180.363281 92.023438 C 180.285156 92.109375 180.195312 92.152344 180.09375 92.148438 C 179.992188 92.152344 179.90625 92.113281 179.835938 92.03125 C 179.757812 91.957031 179.722656 91.867188 179.726562 91.757812 C 179.722656 91.65625 179.757812 91.5625 179.835938 91.480469 C 179.90625 91.402344 179.992188 91.363281 180.09375 91.359375 C 180.203125 91.363281 180.296875 91.398438 180.367188 91.472656 C 180.4375 91.550781 180.472656 91.640625 180.476562 91.734375 Z M 184.019531 94.324219 C 184.015625 94.53125 183.984375 94.730469 183.921875 94.925781 C 183.855469 95.125 183.761719 95.289062 183.644531 95.421875 C 183.503906 95.578125 183.347656 95.695312 183.175781 95.769531 C 182.996094 95.84375 182.796875 95.878906 182.578125 95.882812 C 182.390625 95.878906 182.214844 95.847656 182.050781 95.78125 C 181.882812 95.714844 181.738281 95.613281 181.609375 95.476562 C 181.480469 95.347656 181.378906 95.1875 181.304688 95 C 181.226562 94.8125 181.1875 94.601562 181.191406 94.363281 C 181.1875 93.914062 181.320312 93.546875 181.585938 93.257812 C 181.847656 92.976562 182.191406 92.832031 182.621094 92.828125 C 183.023438 92.832031 183.359375 92.96875 183.625 93.238281 C 183.886719 93.511719 184.015625 93.875 184.019531 94.324219 Z M 183.410156 94.328125 C 183.40625 94.183594 183.394531 94.03125 183.367188 93.867188 C 183.335938 93.707031 183.289062 93.566406 183.234375 93.449219 C 183.167969 93.332031 183.085938 93.234375 182.988281 93.160156 C 182.882812 93.085938 182.761719 93.050781 182.617188 93.046875 C 182.464844 93.050781 182.335938 93.085938 182.230469 93.160156 C 182.121094 93.238281 182.03125 93.339844 181.96875 93.464844 C 181.902344 93.585938 181.859375 93.722656 181.835938 93.875 C 181.808594 94.027344 181.796875 94.175781 181.800781 94.3125 C 181.796875 94.503906 181.8125 94.675781 181.84375 94.835938 C 181.875 94.996094 181.921875 95.140625 181.992188 95.261719 C 182.054688 95.390625 182.140625 95.488281 182.242188 95.558594 C 182.34375 95.632812 182.46875 95.667969 182.617188 95.664062 C 182.859375 95.667969 183.050781 95.550781 183.195312 95.308594 C 183.335938 95.074219 183.40625 94.746094 183.410156 94.328125 Z M 187.625 95.796875 L 186.210938 95.796875 L 186.210938 95.601562 C 186.25 95.601562 186.300781 95.597656 186.359375 95.59375 C 186.410156 95.589844 186.453125 95.582031 186.492188 95.570312 C 186.542969 95.554688 186.585938 95.523438 186.613281 95.476562 C 186.636719 95.433594 186.648438 95.375 186.652344 95.304688 L 186.652344 93.820312 C 186.648438 93.617188 186.601562 93.457031 186.507812 93.347656 C 186.410156 93.238281 186.292969 93.183594 186.15625 93.179688 C 186.050781 93.183594 185.953125 93.199219 185.871094 93.226562 C 185.78125 93.261719 185.707031 93.300781 185.640625 93.34375 C 185.574219 93.394531 185.519531 93.445312 185.484375 93.492188 C 185.445312 93.546875 185.417969 93.585938 185.402344 93.613281 L 185.402344 95.273438 C 185.398438 95.34375 185.414062 95.398438 185.441406 95.441406 C 185.46875 95.484375 185.507812 95.515625 185.566406 95.539062 C 185.605469 95.5625 185.652344 95.578125 185.699219 95.585938 C 185.746094 95.59375 185.792969 95.601562 185.847656 95.601562 L 185.847656 95.796875 L 184.433594 95.796875 L 184.433594 95.601562 C 184.476562 95.601562 184.519531 95.597656 184.570312 95.59375 C 184.617188 95.589844 184.660156 95.582031 184.699219 95.570312 C 184.746094 95.554688 184.785156 95.523438 184.816406 95.476562 C 184.839844 95.433594 184.855469 95.375 184.859375 95.304688 L 184.859375 93.523438 C 184.855469 93.457031 184.839844 93.398438 184.816406 93.339844 C 184.785156 93.289062 184.746094 93.242188 184.699219 93.203125 C 184.65625 93.183594 184.613281 93.167969 184.5625 93.152344 C 184.511719 93.144531 184.457031 93.136719 184.402344 93.132812 L 184.402344 92.9375 L 185.363281 92.875 L 185.402344 92.914062 L 185.402344 93.320312 L 185.417969 93.320312 C 185.464844 93.277344 185.523438 93.222656 185.59375 93.152344 C 185.664062 93.089844 185.730469 93.035156 185.792969 92.992188 C 185.863281 92.949219 185.949219 92.910156 186.050781 92.875 C 186.148438 92.847656 186.257812 92.832031 186.386719 92.828125 C 186.660156 92.832031 186.867188 92.917969 187.003906 93.089844 C 187.136719 93.261719 187.203125 93.492188 187.207031 93.777344 L 187.207031 95.28125 C 187.203125 95.351562 187.214844 95.40625 187.242188 95.445312 C 187.261719 95.488281 187.300781 95.523438 187.359375 95.546875 C 187.402344 95.566406 187.445312 95.578125 187.480469 95.585938 C 187.515625 95.59375 187.5625 95.601562 187.625 95.601562 Z M 162.234375 90.296875 "/>
<path fill="none" stroke-width="1" stroke-linecap="butt" stroke-linejoin="miter" stroke="rgb(0%, 0%, 0%)" stroke-opacity="1" stroke-miterlimit="4" d="M 114.269531 -146.730469 C 124.195312 -136.804688 137.316406 -123.683594 148.4375 -112.5625 " transform="matrix(1, 0, 0, 1, 4, 184)"/>
<path fill-rule="nonzero" fill="rgb(0%, 0%, 0%)" fill-opacity="1" stroke-width="1" stroke-linecap="butt" stroke-linejoin="miter" stroke="rgb(0%, 0%, 0%)" stroke-opacity="1" stroke-miterlimit="4" d="M 151.15625 -114.792969 L 155.753906 -105.246094 L 146.207031 -109.84375 Z M 151.15625 -114.792969 " transform="matrix(1, 0, 0, 1, 4, 184)"/>
<path fill="none" stroke-width="1" stroke-linecap="butt" stroke-linejoin="miter" stroke="rgb(0%, 0%, 0%)" stroke-opacity="1" stroke-miterlimit="4" d="M 198 -18 C 198 -8.058594 185.910156 0 171 0 C 156.089844 0 144 -8.058594 144 -18 C 144 -27.941406 156.089844 -36 171 -36 C 185.910156 -36 198 -27.941406 198 -18 Z M 198 -18 " transform="matrix(1, 0, 0, 1, 4, 184)"/>
<path fill-rule="nonzero" fill="rgb(0%, 0%, 0%)" fill-opacity="1" d="M 165.085938 167.742188 L 164.074219 167.808594 L 164.03125 167.765625 L 164.03125 167.5 L 164.007812 167.492188 C 163.90625 167.609375 163.777344 167.703125 163.628906 167.773438 C 163.476562 167.84375 163.324219 167.878906 163.171875 167.878906 C 163.003906 167.878906 162.847656 167.84375 162.695312 167.769531 C 162.539062 167.699219 162.40625 167.597656 162.296875 167.460938 C 162.179688 167.328125 162.085938 167.164062 162.023438 166.972656 C 161.953125 166.785156 161.921875 166.578125 161.921875 166.347656 C 161.921875 166.140625 161.957031 165.941406 162.027344 165.75 C 162.097656 165.566406 162.195312 165.402344 162.328125 165.257812 C 162.445312 165.132812 162.59375 165.027344 162.765625 164.945312 C 162.9375 164.871094 163.113281 164.832031 163.292969 164.828125 C 163.425781 164.832031 163.558594 164.847656 163.691406 164.878906 C 163.820312 164.914062 163.929688 164.960938 164.023438 165.011719 L 164.023438 164.003906 C 164.019531 163.925781 164.007812 163.851562 163.984375 163.78125 C 163.957031 163.71875 163.917969 163.664062 163.871094 163.625 C 163.8125 163.589844 163.738281 163.566406 163.648438 163.546875 C 163.550781 163.53125 163.449219 163.515625 163.347656 163.507812 L 163.347656 163.328125 L 164.53125 163.261719 L 164.578125 163.304688 L 164.578125 167.199219 C 164.574219 167.269531 164.589844 167.328125 164.617188 167.375 C 164.640625 167.421875 164.675781 167.464844 164.730469 167.496094 C 164.765625 167.523438 164.820312 167.535156 164.894531 167.539062 C 164.960938 167.546875 165.027344 167.550781 165.085938 167.550781 Z M 164.023438 167.238281 L 164.023438 165.546875 C 164.007812 165.496094 163.984375 165.441406 163.949219 165.382812 C 163.914062 165.328125 163.867188 165.277344 163.816406 165.222656 C 163.757812 165.175781 163.691406 165.132812 163.617188 165.101562 C 163.539062 165.070312 163.453125 165.054688 163.351562 165.050781 C 163.234375 165.054688 163.125 165.085938 163.027344 165.144531 C 162.929688 165.207031 162.84375 165.292969 162.769531 165.402344 C 162.695312 165.515625 162.636719 165.65625 162.597656 165.820312 C 162.550781 165.992188 162.53125 166.179688 162.535156 166.382812 C 162.53125 166.550781 162.546875 166.699219 162.582031 166.832031 C 162.609375 166.96875 162.660156 167.09375 162.738281 167.203125 C 162.800781 167.316406 162.890625 167.402344 163 167.46875 C 163.105469 167.535156 163.230469 167.570312 163.378906 167.566406 C 163.53125 167.570312 163.660156 167.535156 163.765625 167.464844 C 163.867188 167.398438 163.953125 167.324219 164.023438 167.238281 Z M 167.933594 167.117188 C 167.808594 167.347656 167.644531 167.53125 167.445312 167.667969 C 167.238281 167.804688 167.003906 167.871094 166.746094 167.875 C 166.511719 167.871094 166.308594 167.832031 166.136719 167.75 C 165.957031 167.667969 165.8125 167.558594 165.703125 167.414062 C 165.585938 167.277344 165.503906 167.113281 165.449219 166.921875 C 165.394531 166.738281 165.367188 166.539062 165.367188 166.328125 C 165.367188 166.144531 165.394531 165.960938 165.457031 165.777344 C 165.511719 165.601562 165.601562 165.4375 165.71875 165.289062 C 165.828125 165.152344 165.964844 165.042969 166.132812 164.957031 C 166.296875 164.875 166.480469 164.832031 166.6875 164.828125 C 166.894531 164.832031 167.078125 164.863281 167.230469 164.925781 C 167.378906 164.992188 167.5 165.085938 167.597656 165.199219 C 167.683594 165.3125 167.75 165.441406 167.796875 165.585938 C 167.839844 165.738281 167.863281 165.898438 167.863281 166.070312 L 167.863281 166.261719 L 165.949219 166.261719 C 165.945312 166.453125 165.964844 166.628906 166.003906 166.78125 C 166.039062 166.9375 166.097656 167.070312 166.175781 167.1875 C 166.25 167.300781 166.347656 167.390625 166.472656 167.457031 C 166.59375 167.523438 166.742188 167.558594 166.914062 167.554688 C 167.085938 167.558594 167.234375 167.515625 167.363281 167.433594 C 167.488281 167.351562 167.609375 167.207031 167.726562 166.992188 Z M 167.285156 166.015625 C 167.28125 165.90625 167.273438 165.789062 167.257812 165.664062 C 167.238281 165.539062 167.207031 165.4375 167.167969 165.351562 C 167.121094 165.265625 167.0625 165.191406 166.984375 165.132812 C 166.90625 165.078125 166.804688 165.050781 166.683594 165.046875 C 166.476562 165.050781 166.304688 165.136719 166.171875 165.304688 C 166.03125 165.476562 165.957031 165.710938 165.949219 166.015625 Z M 171.429688 167.742188 L 170.417969 167.808594 L 170.375 167.765625 L 170.375 167.5 L 170.351562 167.492188 C 170.25 167.609375 170.121094 167.703125 169.972656 167.773438 C 169.820312 167.84375 169.667969 167.878906 169.515625 167.878906 C 169.347656 167.878906 169.191406 167.84375 169.039062 167.769531 C 168.882812 167.699219 168.75 167.597656 168.640625 167.460938 C 168.523438 167.328125 168.429688 167.164062 168.367188 166.972656 C 168.296875 166.785156 168.265625 166.578125 168.265625 166.347656 C 168.265625 166.140625 168.300781 165.941406 168.371094 165.75 C 168.441406 165.566406 168.539062 165.402344 168.671875 165.257812 C 168.789062 165.132812 168.9375 165.027344 169.109375 164.945312 C 169.28125 164.871094 169.457031 164.832031 169.636719 164.828125 C 169.769531 164.832031 169.902344 164.847656 170.035156 164.878906 C 170.164062 164.914062 170.273438 164.960938 170.367188 165.011719 L 170.367188 164.003906 C 170.363281 163.925781 170.351562 163.851562 170.328125 163.78125 C 170.300781 163.71875 170.261719 163.664062 170.214844 163.625 C 170.15625 163.589844 170.082031 163.566406 169.992188 163.546875 C 169.894531 163.53125 169.792969 163.515625 169.691406 163.507812 L 169.691406 163.328125 L 170.875 163.261719 L 170.921875 163.304688 L 170.921875 167.199219 C 170.917969 167.269531 170.933594 167.328125 170.960938 167.375 C 170.984375 167.421875 171.019531 167.464844 171.074219 167.496094 C 171.109375 167.523438 171.164062 167.535156 171.238281 167.539062 C 171.304688 167.546875 171.371094 167.550781 171.429688 167.550781 Z M 170.367188 167.238281 L 170.367188 165.546875 C 170.351562 165.496094 170.328125 165.441406 170.292969 165.382812 C 170.257812 165.328125 170.210938 165.277344 170.160156 165.222656 C 170.101562 165.175781 170.035156 165.132812 169.960938 165.101562 C 169.882812 165.070312 169.796875 165.054688 169.695312 165.050781 C 169.578125 165.054688 169.46875 165.085938 169.371094 165.144531 C 169.273438 165.207031 169.1875 165.292969 169.113281 165.402344 C 169.039062 165.515625 168.980469 165.65625 168.941406 165.820312 C 168.894531 165.992188 168.875 166.179688 168.878906 166.382812 C 168.875 166.550781 168.890625 166.699219 168.925781 166.832031 C 168.953125 166.96875 169.003906 167.09375 169.082031 167.203125 C 169.144531 167.316406 169.234375 167.402344 169.34375 167.46875 C 169.449219 167.535156 169.574219 167.570312 169.722656 167.566406 C 169.875 167.570312 170.003906 167.535156 170.109375 167.464844 C 170.210938 167.398438 170.296875 167.324219 170.367188 167.238281 Z M 174.808594 167.742188 L 173.863281 167.808594 L 173.820312 167.765625 L 173.820312 167.402344 L 173.804688 167.402344 C 173.753906 167.457031 173.703125 167.507812 173.644531 167.558594 C 173.585938 167.617188 173.515625 167.667969 173.441406 167.710938 C 173.351562 167.765625 173.269531 167.800781 173.1875 167.828125 C 173.105469 167.851562 172.988281 167.867188 172.839844 167.871094 C 172.582031 167.867188 172.386719 167.785156 172.253906 167.621094 C 172.117188 167.457031 172.050781 167.214844 172.054688 166.894531 L 172.054688 165.511719 C 172.050781 165.441406 172.039062 165.382812 172.015625 165.335938 C 171.988281 165.289062 171.949219 165.25 171.898438 165.210938 C 171.863281 165.191406 171.816406 165.171875 171.765625 165.160156 C 171.710938 165.148438 171.65625 165.140625 171.601562 165.136719 L 171.601562 164.945312 L 172.5625 164.875 L 172.609375 164.914062 L 172.609375 166.921875 C 172.605469 167.132812 172.652344 167.289062 172.75 167.394531 C 172.839844 167.5 172.953125 167.550781 173.085938 167.550781 C 173.191406 167.550781 173.285156 167.535156 173.371094 167.503906 C 173.453125 167.472656 173.523438 167.433594 173.582031 167.382812 C 173.632812 167.347656 173.679688 167.304688 173.722656 167.253906 C 173.757812 167.210938 173.789062 167.167969 173.8125 167.125 L 173.8125 165.492188 C 173.808594 165.429688 173.796875 165.371094 173.773438 165.320312 C 173.746094 165.273438 173.707031 165.230469 173.660156 165.191406 C 173.621094 165.171875 173.566406 165.15625 173.5 165.148438 C 173.429688 165.144531 173.355469 165.140625 173.269531 165.136719 L 173.269531 164.945312 L 174.320312 164.875 L 174.367188 164.914062 L 174.367188 167.207031 C 174.363281 167.273438 174.378906 167.328125 174.40625 167.375 C 174.429688 167.421875 174.464844 167.464844 174.519531 167.496094 C 174.550781 167.519531 174.59375 167.53125 174.644531 167.539062 C 174.691406 167.546875 174.746094 167.550781 174.808594 167.550781 Z M 176.5 167.875 C 176.082031 167.871094 175.753906 167.734375 175.519531 167.457031 C 175.28125 167.179688 175.164062 166.808594 175.164062 166.339844 C 175.164062 166.140625 175.195312 165.953125 175.257812 165.773438 C 175.320312 165.601562 175.410156 165.4375 175.535156 165.289062 C 175.648438 165.152344 175.792969 165.042969 175.96875 164.957031 C 176.140625 164.875 176.332031 164.832031 176.539062 164.828125 C 176.816406 164.832031 177.046875 164.898438 177.226562 165.03125 C 177.40625 165.167969 177.496094 165.355469 177.496094 165.585938 C 177.496094 165.6875 177.472656 165.773438 177.425781 165.84375 C 177.378906 165.921875 177.300781 165.957031 177.195312 165.957031 C 177.078125 165.957031 176.988281 165.929688 176.925781 165.871094 C 176.859375 165.8125 176.828125 165.746094 176.832031 165.671875 C 176.828125 165.589844 176.839844 165.5 176.867188 165.40625 C 176.886719 165.3125 176.898438 165.246094 176.90625 165.199219 C 176.867188 165.144531 176.816406 165.101562 176.75 165.078125 C 176.679688 165.058594 176.605469 165.050781 176.527344 165.046875 C 176.429688 165.050781 176.339844 165.070312 176.257812 165.109375 C 176.171875 165.152344 176.089844 165.226562 176.011719 165.328125 C 175.9375 165.429688 175.878906 165.5625 175.835938 165.726562 C 175.789062 165.898438 175.765625 166.09375 175.769531 166.320312 C 175.765625 166.6875 175.847656 166.984375 176.011719 167.210938 C 176.171875 167.441406 176.382812 167.558594 176.644531 167.554688 C 176.832031 167.558594 176.992188 167.511719 177.121094 167.417969 C 177.246094 167.328125 177.363281 167.1875 177.476562 167 L 177.664062 167.125 C 177.53125 167.355469 177.359375 167.539062 177.152344 167.671875 C 176.9375 167.808594 176.722656 167.871094 176.5 167.875 Z M 179.675781 167.671875 C 179.546875 167.726562 179.425781 167.765625 179.3125 167.804688 C 179.199219 167.835938 179.0625 167.855469 178.898438 167.859375 C 178.65625 167.855469 178.484375 167.796875 178.386719 167.675781 C 178.285156 167.554688 178.234375 167.382812 178.238281 167.15625 L 178.238281 165.203125 L 177.71875 165.203125 L 177.71875 164.921875 L 178.25 164.921875 L 178.25 164.019531 L 178.785156 164.019531 L 178.785156 164.921875 L 179.613281 164.921875 L 179.613281 165.203125 L 178.789062 165.203125 L 178.789062 166.816406 C 178.785156 166.941406 178.789062 167.042969 178.800781 167.121094 C 178.808594 167.207031 178.832031 167.277344 178.867188 167.332031 C 178.894531 167.390625 178.941406 167.433594 179.007812 167.460938 C 179.066406 167.492188 179.148438 167.503906 179.257812 167.503906 C 179.304688 167.503906 179.378906 167.5 179.472656 167.492188 C 179.566406 167.484375 179.632812 167.472656 179.675781 167.457031 Z M 181.359375 167.796875 L 179.96875 167.796875 L 179.96875 167.601562 C 180.007812 167.601562 180.054688 167.597656 180.105469 167.59375 C 180.152344 167.589844 180.195312 167.582031 180.230469 167.570312 C 180.285156 167.554688 180.324219 167.523438 180.351562 167.476562 C 180.375 167.433594 180.386719 167.375 180.390625 167.304688 L 180.390625 165.523438 C 180.386719 165.460938 180.375 165.40625 180.347656 165.351562 C 180.316406 165.304688 180.277344 165.261719 180.230469 165.222656 C 180.191406 165.203125 180.136719 165.183594 180.070312 165.164062 C 179.996094 165.148438 179.929688 165.136719 179.875 165.132812 L 179.875 164.9375 L 180.894531 164.875 L 180.9375 164.914062 L 180.9375 167.269531 C 180.933594 167.339844 180.945312 167.398438 180.976562 167.441406 C 181 167.488281 181.042969 167.519531 181.097656 167.539062 C 181.140625 167.558594 181.179688 167.574219 181.222656 167.582031 C 181.261719 167.59375 181.308594 167.601562 181.359375 167.601562 Z M 180.996094 163.734375 C 180.992188 163.847656 180.953125 163.941406 180.882812 164.023438 C 180.804688 164.109375 180.714844 164.152344 180.613281 164.148438 C 180.511719 164.152344 180.425781 164.113281 180.355469 164.03125 C 180.277344 163.957031 180.242188 163.867188 180.246094 163.757812 C 180.242188 163.65625 180.277344 163.5625 180.355469 163.480469 C 180.425781 163.402344 180.511719 163.363281 180.613281 163.359375 C 180.722656 163.363281 180.816406 163.398438 180.886719 163.472656 C 180.957031 163.550781 180.992188 163.640625 180.996094 163.734375 Z M 184.539062 166.324219 C 184.535156 166.53125 184.503906 166.730469 184.441406 166.925781 C 184.375 167.125 184.28125 167.289062 184.164062 167.421875 C 184.023438 167.578125 183.867188 167.695312 183.695312 167.769531 C 183.515625 167.84375 183.316406 167.878906 183.097656 167.882812 C 182.910156 167.878906 182.734375 167.847656 182.570312 167.78125 C 182.402344 167.714844 182.257812 167.613281 182.128906 167.476562 C 182 167.347656 181.898438 167.1875 181.824219 167 C 181.746094 166.8125 181.707031 166.601562 181.710938 166.363281 C 181.707031 165.914062 181.839844 165.546875 182.105469 165.257812 C 182.367188 164.976562 182.710938 164.832031 183.140625 164.828125 C 183.542969 164.832031 183.878906 164.96875 184.144531 165.238281 C 184.40625 165.511719 184.535156 165.875 184.539062 166.324219 Z M 183.929688 166.328125 C 183.925781 166.183594 183.914062 166.03125 183.886719 165.867188 C 183.855469 165.707031 183.808594 165.566406 183.753906 165.449219 C 183.6875 165.332031 183.605469 165.234375 183.507812 165.160156 C 183.402344 165.085938 183.28125 165.050781 183.136719 165.046875 C 182.984375 165.050781 182.855469 165.085938 182.75 165.160156 C 182.640625 165.238281 182.550781 165.339844 182.488281 165.464844 C 182.421875 165.585938 182.378906 165.722656 182.355469 165.875 C 182.328125 166.027344 182.316406 166.175781 182.320312 166.3125 C 182.316406 166.503906 182.332031 166.675781 182.363281 166.835938 C 182.394531 166.996094 182.441406 167.140625 182.511719 167.261719 C 182.574219 167.390625 182.660156 167.488281 182.761719 167.558594 C 182.863281 167.632812 182.988281 167.667969 183.136719 167.664062 C 183.378906 167.667969 183.570312 167.550781 183.714844 167.308594 C 183.855469 167.074219 183.925781 166.746094 183.929688 166.328125 Z M 188.144531 167.796875 L 186.730469 167.796875 L 186.730469 167.601562 C 186.769531 167.601562 186.820312 167.597656 186.878906 167.59375 C 186.929688 167.589844 186.972656 167.582031 187.011719 167.570312 C 187.0625 167.554688 187.105469 167.523438 187.132812 167.476562 C 187.15625 167.433594 187.167969 167.375 187.171875 167.304688 L 187.171875 165.820312 C 187.167969 165.617188 187.121094 165.457031 187.027344 165.347656 C 186.929688 165.238281 186.8125 165.183594 186.675781 165.179688 C 186.570312 165.183594 186.472656 165.199219 186.390625 165.226562 C 186.300781 165.261719 186.226562 165.300781 186.160156 165.34375 C 186.09375 165.394531 186.039062 165.445312 186.003906 165.492188 C 185.964844 165.546875 185.9375 165.585938 185.921875 165.613281 L 185.921875 167.273438 C 185.917969 167.34375 185.933594 167.398438 185.960938 167.441406 C 185.988281 167.484375 186.027344 167.515625 186.085938 167.539062 C 186.125 167.5625 186.171875 167.578125 186.21875 167.585938 C 186.265625 167.59375 186.3125 167.601562 186.367188 167.601562 L 186.367188 167.796875 L 184.953125 167.796875 L 184.953125 167.601562 C 184.996094 167.601562 185.039062 167.597656 185.089844 167.59375 C 185.136719 167.589844 185.179688 167.582031 185.21875 167.570312 C 185.265625 167.554688 185.304688 167.523438 185.335938 167.476562 C 185.359375 167.433594 185.375 167.375 185.378906 167.304688 L 185.378906 165.523438 C 185.375 165.457031 185.359375 165.398438 185.335938 165.339844 C 185.304688 165.289062 185.265625 165.242188 185.21875 165.203125 C 185.175781 165.183594 185.132812 165.167969 185.082031 165.152344 C 185.03125 165.144531 184.976562 165.136719 184.921875 165.132812 L 184.921875 164.9375 L 185.882812 164.875 L 185.921875 164.914062 L 185.921875 165.320312 L 185.9375 165.320312 C 185.984375 165.277344 186.042969 165.222656 186.113281 165.152344 C 186.183594 165.089844 186.25 165.035156 186.3125 164.992188 C 186.382812 164.949219 186.46875 164.910156 186.570312 164.875 C 186.667969 164.847656 186.777344 164.832031 186.90625 164.828125 C 187.179688 164.832031 187.386719 164.917969 187.523438 165.089844 C 187.65625 165.261719 187.722656 165.492188 187.726562 165.777344 L 187.726562 167.28125 C 187.722656 167.351562 187.734375 167.40625 187.761719 167.445312 C 187.78125 167.488281 187.820312 167.523438 187.878906 167.546875 C 187.921875 167.566406 187.964844 167.578125 188 167.585938 C 188.035156 167.59375 188.082031 167.601562 188.144531 167.601562 Z M 161.710938 162.296875 "/>
<path fill="none" stroke-width="1" stroke-linecap="butt" stroke-linejoin="miter" stroke="rgb(0%, 0%, 0%)" stroke-opacity="1" stroke-miterlimit="4" d="M 171 -71.832031 C 171 -64.132812 171 -54.972656 171 -46.417969 " transform="matrix(1, 0, 0, 1, 4, 184)"/>
<path fill-rule="nonzero" fill="rgb(0%, 0%, 0%)" fill-opacity="1" stroke-width="1" stroke-linecap="butt" stroke-linejoin="miter" stroke="rgb(0%, 0%, 0%)" stroke-opacity="1" stroke-miterlimit="4" d="M 174.5 -46.414062 L 171 -36.414062 L 167.5 -46.414062 Z M 174.5 -46.414062 " transform="matrix(1, 0, 0, 1, 4, 184)"/>
<path fill="none" stroke-width="1" stroke-linecap="butt" stroke-linejoin="miter" stroke="rgb(0%, 0%, 0%)" stroke-opacity="1" stroke-miterlimit="4" d="M 54 -18 C 54 -8.058594 41.910156 0 27 0 C 12.089844 0 0 -8.058594 0 -18 C 0 -27.941406 12.089844 -36 27 -36 C 41.910156 -36 54 -27.941406 54 -18 Z M 54 -18 " transform="matrix(1, 0, 0, 1, 4, 184)"/>
<path fill-rule="nonzero" fill="rgb(0%, 0%, 0%)" fill-opacity="1" d="M 28.179688 167.671875 C 28.050781 167.726562 27.929688 167.765625 27.816406 167.804688 C 27.703125 167.835938 27.566406 167.855469 27.402344 167.859375 C 27.160156 167.855469 26.988281 167.796875 26.890625 167.675781 C 26.789062 167.554688 26.738281 167.382812 26.742188 167.15625 L 26.742188 165.203125 L 26.222656 165.203125 L 26.222656 164.921875 L 26.753906 164.921875 L 26.753906 164.019531 L 27.289062 164.019531 L 27.289062 164.921875 L 28.117188 164.921875 L 28.117188 165.203125 L 27.292969 165.203125 L 27.292969 166.816406 C 27.289062 166.941406 27.292969 167.042969 27.304688 167.121094 C 27.3125 167.207031 27.335938 167.277344 27.371094 167.332031 C 27.398438 167.390625 27.445312 167.433594 27.511719 167.460938 C 27.570312 167.492188 27.652344 167.503906 27.761719 167.503906 C 27.808594 167.503906 27.882812 167.5 27.976562 167.492188 C 28.070312 167.484375 28.136719 167.472656 28.179688 167.457031 Z M 31.03125 167.117188 C 30.90625 167.347656 30.742188 167.53125 30.542969 167.667969 C 30.335938 167.804688 30.101562 167.871094 29.84375 167.875 C 29.609375 167.871094 29.40625 167.832031 29.234375 167.75 C 29.054688 167.667969 28.910156 167.558594 28.800781 167.414062 C 28.683594 167.277344 28.601562 167.113281 28.546875 166.921875 C 28.492188 166.738281 28.464844 166.539062 28.464844 166.328125 C 28.464844 166.144531 28.492188 165.960938 28.554688 165.777344 C 28.609375 165.601562 28.699219 165.4375 28.816406 165.289062 C 28.925781 165.152344 29.0625 165.042969 29.230469 164.957031 C 29.394531 164.875 29.578125 164.832031 29.785156 164.828125 C 29.992188 164.832031 30.175781 164.863281 30.328125 164.925781 C 30.476562 164.992188 30.597656 165.085938 30.695312 165.199219 C 30.78125 165.3125 30.847656 165.441406 30.894531 165.585938 C 30.9375 165.738281 30.960938 165.898438 30.960938 166.070312 L 30.960938 166.261719 L 29.046875 166.261719 C 29.042969 166.453125 29.0625 166.628906 29.101562 166.78125 C 29.136719 166.9375 29.195312 167.070312 29.273438 167.1875 C 29.347656 167.300781 29.445312 167.390625 29.570312 167.457031 C 29.691406 167.523438 29.839844 167.558594 30.011719 167.554688 C 30.183594 167.558594 30.332031 167.515625 30.460938 167.433594 C 30.585938 167.351562 30.707031 167.207031 30.824219 166.992188 Z M 30.382812 166.015625 C 30.378906 165.90625 30.371094 165.789062 30.355469 165.664062 C 30.335938 165.539062 30.304688 165.4375 30.265625 165.351562 C 30.21875 165.265625 30.160156 165.191406 30.082031 165.132812 C 30.003906 165.078125 29.902344 165.050781 29.78125 165.046875 C 29.574219 165.050781 29.402344 165.136719 29.269531 165.304688 C 29.128906 165.476562 29.054688 165.710938 29.046875 166.015625 Z M 33.273438 166.382812 C 33.351562 166.457031 33.414062 166.535156 33.457031 166.625 C 33.5 166.71875 33.523438 166.832031 33.523438 166.960938 C 33.523438 167.230469 33.421875 167.449219 33.222656 167.621094 C 33.019531 167.789062 32.761719 167.871094 32.445312 167.875 C 32.277344 167.871094 32.121094 167.84375 31.980469 167.785156 C 31.835938 167.722656 31.734375 167.667969 31.679688 167.617188 L 31.617188 167.804688 L 31.398438 167.804688 L 31.371094 166.800781 L 31.570312 166.800781 C 31.582031 166.878906 31.617188 166.96875 31.671875 167.070312 C 31.722656 167.171875 31.78125 167.265625 31.855469 167.34375 C 31.925781 167.433594 32.019531 167.503906 32.128906 167.5625 C 32.234375 167.621094 32.351562 167.652344 32.488281 167.648438 C 32.671875 167.652344 32.816406 167.609375 32.921875 167.523438 C 33.019531 167.441406 33.070312 167.320312 33.074219 167.15625 C 33.070312 167.078125 33.054688 167.003906 33.023438 166.941406 C 32.988281 166.882812 32.941406 166.832031 32.882812 166.785156 C 32.816406 166.742188 32.738281 166.703125 32.648438 166.664062 C 32.550781 166.632812 32.445312 166.597656 32.335938 166.558594 C 32.238281 166.535156 32.136719 166.496094 32.027344 166.445312 C 31.914062 166.402344 31.816406 166.347656 31.738281 166.277344 C 31.648438 166.210938 31.578125 166.125 31.527344 166.023438 C 31.46875 165.925781 31.441406 165.808594 31.445312 165.671875 C 31.441406 165.441406 31.53125 165.242188 31.707031 165.074219 C 31.882812 164.914062 32.117188 164.832031 32.414062 164.828125 C 32.527344 164.832031 32.644531 164.847656 32.761719 164.871094 C 32.878906 164.902344 32.972656 164.9375 33.050781 164.976562 L 33.117188 164.824219 L 33.328125 164.824219 L 33.375 165.75 L 33.171875 165.75 C 33.128906 165.546875 33.039062 165.378906 32.90625 165.246094 C 32.769531 165.117188 32.605469 165.050781 32.410156 165.046875 C 32.25 165.050781 32.121094 165.089844 32.03125 165.167969 C 31.9375 165.25 31.894531 165.347656 31.894531 165.460938 C 31.894531 165.550781 31.90625 165.625 31.9375 165.683594 C 31.964844 165.742188 32.011719 165.792969 32.078125 165.832031 C 32.132812 165.875 32.207031 165.910156 32.296875 165.941406 C 32.382812 165.976562 32.492188 166.015625 32.625 166.054688 C 32.753906 166.101562 32.875 166.148438 32.992188 166.199219 C 33.101562 166.257812 33.195312 166.320312 33.273438 166.382812 Z M 35.746094 167.671875 C 35.617188 167.726562 35.496094 167.765625 35.382812 167.804688 C 35.269531 167.835938 35.132812 167.855469 34.96875 167.859375 C 34.726562 167.855469 34.554688 167.796875 34.457031 167.675781 C 34.355469 167.554688 34.304688 167.382812 34.308594 167.15625 L 34.308594 165.203125 L 33.789062 165.203125 L 33.789062 164.921875 L 34.320312 164.921875 L 34.320312 164.019531 L 34.855469 164.019531 L 34.855469 164.921875 L 35.683594 164.921875 L 35.683594 165.203125 L 34.859375 165.203125 L 34.859375 166.816406 C 34.855469 166.941406 34.859375 167.042969 34.871094 167.121094 C 34.878906 167.207031 34.902344 167.277344 34.9375 167.332031 C 34.964844 167.390625 35.011719 167.433594 35.078125 167.460938 C 35.136719 167.492188 35.21875 167.503906 35.328125 167.503906 C 35.375 167.503906 35.449219 167.5 35.542969 167.492188 C 35.636719 167.484375 35.703125 167.472656 35.746094 167.457031 Z M 26.183594 162.296875 "/>
<path fill="none" stroke-width="1" stroke-linecap="butt" stroke-linejoin="miter" stroke="rgb(0%, 0%, 0%)" stroke-opacity="1" stroke-miterlimit="4" d="M 143.914062 -18 C 121.53125 -18 89.503906 -18 64.628906 -18 " transform="matrix(1, 0, 0, 1, 4, 184)"/>
<path fill-rule="nonzero" fill="rgb(0%, 0%, 0%)" fill-opacity="1" stroke-width="1" stroke-linecap="butt" stroke-linejoin="miter" stroke="rgb(0%, 0%, 0%)" stroke-opacity="1" stroke-miterlimit="4" d="M 64.453125 -14.5 L 54.453125 -18 L 64.453125 -21.5 Z M 64.453125 -14.5 " transform="matrix(1, 0, 0, 1, 4, 184)"/>
<path fill="none" stroke-width="1" stroke-linecap="butt" stroke-linejoin="miter" stroke="rgb(0%, 0%, 0%)" stroke-opacity="1" stroke-miterlimit="4" d="M 54 -90 C 54 -80.058594 41.910156 -72 27 -72 C 12.089844 -72 0 -80.058594 0 -90 C 0 -99.941406 12.089844 -108 27 -108 C 41.910156 -108 54 -99.941406 54 -90 Z M 54 -90 " transform="matrix(1, 0, 0, 1, 4, 184)"/>
<path fill-rule="nonzero" fill="rgb(0%, 0%, 0%)" fill-opacity="1" d="M 19.925781 95.117188 C 19.800781 95.347656 19.636719 95.53125 19.4375 95.667969 C 19.230469 95.804688 18.996094 95.871094 18.738281 95.875 C 18.503906 95.871094 18.300781 95.832031 18.128906 95.75 C 17.949219 95.667969 17.804688 95.558594 17.695312 95.414062 C 17.578125 95.277344 17.496094 95.113281 17.441406 94.921875 C 17.386719 94.738281 17.359375 94.539062 17.359375 94.328125 C 17.359375 94.144531 17.386719 93.960938 17.449219 93.777344 C 17.503906 93.601562 17.59375 93.4375 17.710938 93.289062 C 17.820312 93.152344 17.957031 93.042969 18.125 92.957031 C 18.289062 92.875 18.472656 92.832031 18.679688 92.828125 C 18.886719 92.832031 19.070312 92.863281 19.222656 92.925781 C 19.371094 92.992188 19.492188 93.085938 19.589844 93.199219 C 19.675781 93.3125 19.742188 93.441406 19.789062 93.585938 C 19.832031 93.738281 19.855469 93.898438 19.855469 94.070312 L 19.855469 94.261719 L 17.941406 94.261719 C 17.9375 94.453125 17.957031 94.628906 17.996094 94.78125 C 18.03125 94.9375 18.089844 95.070312 18.167969 95.1875 C 18.242188 95.300781 18.339844 95.390625 18.464844 95.457031 C 18.585938 95.523438 18.734375 95.558594 18.90625 95.554688 C 19.078125 95.558594 19.226562 95.515625 19.355469 95.433594 C 19.480469 95.351562 19.601562 95.207031 19.71875 94.992188 Z M 19.277344 94.015625 C 19.273438 93.90625 19.265625 93.789062 19.25 93.664062 C 19.230469 93.539062 19.199219 93.4375 19.160156 93.351562 C 19.113281 93.265625 19.054688 93.191406 18.976562 93.132812 C 18.898438 93.078125 18.796875 93.050781 18.675781 93.046875 C 18.46875 93.050781 18.296875 93.136719 18.164062 93.304688 C 18.023438 93.476562 17.949219 93.710938 17.941406 94.015625 Z M 23.109375 93.085938 C 23.019531 93.105469 22.9375 93.136719 22.859375 93.183594 C 22.78125 93.230469 22.710938 93.316406 22.65625 93.4375 C 22.539062 93.699219 22.421875 93.972656 22.300781 94.253906 C 22.175781 94.542969 22.046875 94.839844 21.914062 95.148438 C 21.875 95.242188 21.835938 95.347656 21.792969 95.46875 C 21.746094 95.59375 21.703125 95.710938 21.671875 95.824219 L 21.441406 95.824219 C 21.253906 95.363281 21.082031 94.945312 20.929688 94.566406 C 20.769531 94.191406 20.605469 93.804688 20.441406 93.40625 C 20.398438 93.320312 20.335938 93.253906 20.253906 93.199219 C 20.164062 93.152344 20.082031 93.117188 19.992188 93.101562 L 19.992188 92.90625 L 21.328125 92.90625 L 21.328125 93.113281 C 21.265625 93.117188 21.191406 93.132812 21.105469 93.152344 C 21.015625 93.175781 20.972656 93.203125 20.976562 93.242188 C 20.972656 93.25 20.976562 93.265625 20.988281 93.289062 C 20.996094 93.3125 21.007812 93.339844 21.019531 93.371094 C 21.097656 93.570312 21.210938 93.851562 21.359375 94.207031 C 21.503906 94.566406 21.621094 94.851562 21.714844 95.066406 C 21.78125 94.902344 21.871094 94.695312 21.980469 94.441406 C 22.085938 94.195312 22.199219 93.914062 22.324219 93.605469 C 22.34375 93.554688 22.363281 93.507812 22.378906 93.457031 C 22.394531 93.414062 22.402344 93.367188 22.40625 93.316406 C 22.402344 93.289062 22.386719 93.257812 22.359375 93.230469 C 22.324219 93.203125 22.285156 93.179688 22.242188 93.160156 C 22.195312 93.140625 22.152344 93.128906 22.109375 93.117188 C 22.066406 93.109375 22.03125 93.101562 22.007812 93.09375 L 22.007812 92.90625 L 23.109375 92.90625 Z M 25.972656 95.742188 C 25.878906 95.78125 25.796875 95.804688 25.730469 95.824219 C 25.660156 95.84375 25.582031 95.855469 25.496094 95.855469 C 25.339844 95.855469 25.21875 95.820312 25.132812 95.75 C 25.039062 95.679688 24.980469 95.578125 24.957031 95.4375 L 24.941406 95.4375 C 24.8125 95.582031 24.675781 95.6875 24.53125 95.761719 C 24.382812 95.832031 24.207031 95.867188 24.003906 95.871094 C 23.785156 95.867188 23.605469 95.804688 23.46875 95.671875 C 23.328125 95.542969 23.261719 95.367188 23.261719 95.148438 C 23.261719 95.042969 23.277344 94.945312 23.308594 94.851562 C 23.339844 94.765625 23.386719 94.683594 23.449219 94.613281 C 23.496094 94.554688 23.558594 94.503906 23.640625 94.457031 C 23.71875 94.414062 23.792969 94.378906 23.867188 94.347656 C 23.953125 94.316406 24.132812 94.253906 24.402344 94.164062 C 24.667969 94.074219 24.847656 94.003906 24.945312 93.953125 L 24.945312 93.660156 C 24.941406 93.640625 24.9375 93.59375 24.929688 93.515625 C 24.917969 93.445312 24.894531 93.375 24.863281 93.308594 C 24.816406 93.242188 24.761719 93.179688 24.695312 93.121094 C 24.621094 93.070312 24.519531 93.042969 24.394531 93.039062 C 24.300781 93.042969 24.21875 93.058594 24.140625 93.085938 C 24.0625 93.121094 24.007812 93.152344 23.980469 93.179688 C 23.976562 93.222656 23.984375 93.28125 24.007812 93.355469 C 24.023438 93.433594 24.035156 93.503906 24.035156 93.5625 C 24.035156 93.636719 24.003906 93.699219 23.941406 93.753906 C 23.878906 93.8125 23.792969 93.839844 23.6875 93.835938 C 23.585938 93.839844 23.511719 93.804688 23.46875 93.734375 C 23.421875 93.664062 23.402344 93.585938 23.402344 93.5 C 23.402344 93.414062 23.433594 93.328125 23.496094 93.242188 C 23.558594 93.160156 23.640625 93.089844 23.746094 93.023438 C 23.832031 92.972656 23.9375 92.925781 24.066406 92.886719 C 24.1875 92.851562 24.308594 92.832031 24.429688 92.828125 C 24.589844 92.832031 24.734375 92.84375 24.859375 92.863281 C 24.980469 92.886719 25.089844 92.933594 25.191406 93.003906 C 25.285156 93.078125 25.363281 93.175781 25.417969 93.300781 C 25.46875 93.425781 25.492188 93.585938 25.496094 93.777344 C 25.492188 94.058594 25.492188 94.304688 25.488281 94.519531 C 25.480469 94.738281 25.476562 94.976562 25.480469 95.226562 C 25.476562 95.308594 25.488281 95.367188 25.519531 95.410156 C 25.542969 95.457031 25.585938 95.496094 25.640625 95.523438 C 25.667969 95.542969 25.710938 95.554688 25.777344 95.554688 C 25.839844 95.558594 25.90625 95.558594 25.972656 95.554688 Z M 24.953125 94.195312 C 24.785156 94.25 24.640625 94.296875 24.515625 94.339844 C 24.390625 94.390625 24.273438 94.449219 24.167969 94.515625 C 24.066406 94.585938 23.988281 94.664062 23.933594 94.753906 C 23.875 94.847656 23.847656 94.957031 23.851562 95.078125 C 23.847656 95.242188 23.890625 95.363281 23.976562 95.4375 C 24.0625 95.515625 24.167969 95.550781 24.300781 95.550781 C 24.4375 95.550781 24.5625 95.519531 24.667969 95.449219 C 24.769531 95.386719 24.855469 95.304688 24.933594 95.210938 Z M 27.613281 95.796875 L 26.207031 95.796875 L 26.207031 95.601562 C 26.25 95.601562 26.296875 95.597656 26.347656 95.589844 C 26.398438 95.589844 26.441406 95.582031 26.476562 95.566406 C 26.527344 95.554688 26.566406 95.523438 26.597656 95.476562 C 26.621094 95.433594 26.636719 95.375 26.640625 95.304688 L 26.640625 91.957031 C 26.636719 91.890625 26.621094 91.824219 26.59375 91.761719 C 26.5625 91.703125 26.523438 91.652344 26.476562 91.613281 C 26.4375 91.589844 26.371094 91.570312 26.28125 91.550781 C 26.183594 91.53125 26.109375 91.519531 26.058594 91.515625 L 26.058594 91.328125 L 27.144531 91.261719 L 27.183594 91.304688 L 27.183594 95.269531 C 27.179688 95.339844 27.195312 95.398438 27.222656 95.4375 C 27.246094 95.484375 27.285156 95.515625 27.347656 95.539062 C 27.386719 95.5625 27.429688 95.578125 27.472656 95.585938 C 27.511719 95.59375 27.558594 95.601562 27.613281 95.601562 Z M 31.078125 95.742188 L 30.132812 95.808594 L 30.089844 95.765625 L 30.089844 95.402344 L 30.074219 95.402344 C 30.023438 95.457031 29.972656 95.507812 29.914062 95.558594 C 29.855469 95.617188 29.785156 95.667969 29.710938 95.710938 C 29.621094 95.765625 29.539062 95.800781 29.457031 95.828125 C 29.375 95.851562 29.257812 95.867188 29.109375 95.871094 C 28.851562 95.867188 28.65625 95.785156 28.523438 95.621094 C 28.386719 95.457031 28.320312 95.214844 28.324219 94.894531 L 28.324219 93.511719 C 28.320312 93.441406 28.308594 93.382812 28.285156 93.335938 C 28.257812 93.289062 28.21875 93.25 28.167969 93.210938 C 28.132812 93.191406 28.085938 93.171875 28.035156 93.160156 C 27.980469 93.148438 27.925781 93.140625 27.871094 93.136719 L 27.871094 92.945312 L 28.832031 92.875 L 28.878906 92.914062 L 28.878906 94.921875 C 28.875 95.132812 28.921875 95.289062 29.019531 95.394531 C 29.109375 95.5 29.222656 95.550781 29.355469 95.550781 C 29.460938 95.550781 29.554688 95.535156 29.640625 95.503906 C 29.722656 95.472656 29.792969 95.433594 29.851562 95.382812 C 29.902344 95.347656 29.949219 95.304688 29.992188 95.253906 C 30.027344 95.210938 30.058594 95.167969 30.082031 95.125 L 30.082031 93.492188 C 30.078125 93.429688 30.066406 93.371094 30.042969 93.320312 C 30.015625 93.273438 29.976562 93.230469 29.929688 93.191406 C 29.890625 93.171875 29.835938 93.15625 29.769531 93.148438 C 29.699219 93.144531 29.625 93.140625 29.539062 93.136719 L 29.539062 92.945312 L 30.589844 92.875 L 30.636719 92.914062 L 30.636719 95.207031 C 30.632812 95.273438 30.648438 95.328125 30.675781 95.375 C 30.699219 95.421875 30.734375 95.464844 30.789062 95.496094 C 30.820312 95.519531 30.863281 95.53125 30.914062 95.539062 C 30.960938 95.546875 31.015625 95.550781 31.078125 95.550781 Z M 34.164062 95.742188 C 34.070312 95.78125 33.988281 95.804688 33.921875 95.824219 C 33.851562 95.84375 33.773438 95.855469 33.6875 95.855469 C 33.53125 95.855469 33.410156 95.820312 33.324219 95.75 C 33.230469 95.679688 33.171875 95.578125 33.148438 95.4375 L 33.132812 95.4375 C 33.003906 95.582031 32.867188 95.6875 32.722656 95.761719 C 32.574219 95.832031 32.398438 95.867188 32.195312 95.871094 C 31.976562 95.867188 31.796875 95.804688 31.660156 95.671875 C 31.519531 95.542969 31.453125 95.367188 31.453125 95.148438 C 31.453125 95.042969 31.46875 94.945312 31.5 94.851562 C 31.53125 94.765625 31.578125 94.683594 31.640625 94.613281 C 31.6875 94.554688 31.75 94.503906 31.832031 94.457031 C 31.910156 94.414062 31.984375 94.378906 32.058594 94.347656 C 32.144531 94.316406 32.324219 94.253906 32.59375 94.164062 C 32.859375 94.074219 33.039062 94.003906 33.136719 93.953125 L 33.136719 93.660156 C 33.132812 93.640625 33.128906 93.59375 33.121094 93.515625 C 33.109375 93.445312 33.085938 93.375 33.054688 93.308594 C 33.007812 93.242188 32.953125 93.179688 32.886719 93.121094 C 32.8125 93.070312 32.710938 93.042969 32.585938 93.039062 C 32.492188 93.042969 32.410156 93.058594 32.332031 93.085938 C 32.253906 93.121094 32.199219 93.152344 32.171875 93.179688 C 32.167969 93.222656 32.175781 93.28125 32.199219 93.355469 C 32.214844 93.433594 32.226562 93.503906 32.226562 93.5625 C 32.226562 93.636719 32.195312 93.699219 32.132812 93.753906 C 32.070312 93.8125 31.984375 93.839844 31.878906 93.835938 C 31.777344 93.839844 31.703125 93.804688 31.660156 93.734375 C 31.613281 93.664062 31.59375 93.585938 31.59375 93.5 C 31.59375 93.414062 31.625 93.328125 31.6875 93.242188 C 31.75 93.160156 31.832031 93.089844 31.9375 93.023438 C 32.023438 92.972656 32.128906 92.925781 32.257812 92.886719 C 32.378906 92.851562 32.5 92.832031 32.621094 92.828125 C 32.78125 92.832031 32.925781 92.84375 33.050781 92.863281 C 33.171875 92.886719 33.28125 92.933594 33.382812 93.003906 C 33.476562 93.078125 33.554688 93.175781 33.609375 93.300781 C 33.660156 93.425781 33.683594 93.585938 33.6875 93.777344 C 33.683594 94.058594 33.683594 94.304688 33.679688 94.519531 C 33.671875 94.738281 33.667969 94.976562 33.671875 95.226562 C 33.667969 95.308594 33.679688 95.367188 33.710938 95.410156 C 33.734375 95.457031 33.777344 95.496094 33.832031 95.523438 C 33.859375 95.542969 33.902344 95.554688 33.96875 95.554688 C 34.03125 95.558594 34.097656 95.558594 34.164062 95.554688 Z M 33.144531 94.195312 C 32.976562 94.25 32.832031 94.296875 32.707031 94.339844 C 32.582031 94.390625 32.464844 94.449219 32.359375 94.515625 C 32.257812 94.585938 32.179688 94.664062 32.125 94.753906 C 32.066406 94.847656 32.039062 94.957031 32.042969 95.078125 C 32.039062 95.242188 32.082031 95.363281 32.167969 95.4375 C 32.253906 95.515625 32.359375 95.550781 32.492188 95.550781 C 32.628906 95.550781 32.753906 95.519531 32.859375 95.449219 C 32.960938 95.386719 33.046875 95.304688 33.125 95.210938 Z M 36.238281 95.671875 C 36.109375 95.726562 35.988281 95.765625 35.875 95.804688 C 35.761719 95.835938 35.625 95.855469 35.460938 95.859375 C 35.21875 95.855469 35.046875 95.796875 34.949219 95.675781 C 34.847656 95.554688 34.796875 95.382812 34.800781 95.15625 L 34.800781 93.203125 L 34.28125 93.203125 L 34.28125 92.921875 L 34.8125 92.921875 L 34.8125 92.019531 L 35.347656 92.019531 L 35.347656 92.921875 L 36.175781 92.921875 L 36.175781 93.203125 L 35.351562 93.203125 L 35.351562 94.816406 C 35.347656 94.941406 35.351562 95.042969 35.363281 95.121094 C 35.371094 95.207031 35.394531 95.277344 35.429688 95.332031 C 35.457031 95.390625 35.503906 95.433594 35.570312 95.460938 C 35.628906 95.492188 35.710938 95.503906 35.820312 95.503906 C 35.867188 95.503906 35.941406 95.5 36.035156 95.492188 C 36.128906 95.484375 36.195312 95.472656 36.238281 95.457031 Z M 37.921875 95.796875 L 36.53125 95.796875 L 36.53125 95.601562 C 36.570312 95.601562 36.617188 95.597656 36.667969 95.59375 C 36.714844 95.589844 36.757812 95.582031 36.792969 95.570312 C 36.847656 95.554688 36.886719 95.523438 36.914062 95.476562 C 36.9375 95.433594 36.949219 95.375 36.953125 95.304688 L 36.953125 93.523438 C 36.949219 93.460938 36.9375 93.40625 36.910156 93.351562 C 36.878906 93.304688 36.839844 93.261719 36.792969 93.222656 C 36.753906 93.203125 36.699219 93.183594 36.632812 93.164062 C 36.558594 93.148438 36.492188 93.136719 36.4375 93.132812 L 36.4375 92.9375 L 37.457031 92.875 L 37.5 92.914062 L 37.5 95.269531 C 37.496094 95.339844 37.507812 95.398438 37.539062 95.441406 C 37.5625 95.488281 37.605469 95.519531 37.660156 95.539062 C 37.703125 95.558594 37.742188 95.574219 37.785156 95.582031 C 37.824219 95.59375 37.871094 95.601562 37.921875 95.601562 Z M 37.558594 91.734375 C 37.554688 91.847656 37.515625 91.941406 37.445312 92.023438 C 37.367188 92.109375 37.277344 92.152344 37.175781 92.148438 C 37.074219 92.152344 36.988281 92.113281 36.917969 92.03125 C 36.839844 91.957031 36.804688 91.867188 36.808594 91.757812 C 36.804688 91.65625 36.839844 91.5625 36.917969 91.480469 C 36.988281 91.402344 37.074219 91.363281 37.175781 91.359375 C 37.285156 91.363281 37.378906 91.398438 37.449219 91.472656 C 37.519531 91.550781 37.554688 91.640625 37.558594 91.734375 Z M 41.101562 94.324219 C 41.097656 94.53125 41.066406 94.730469 41.003906 94.925781 C 40.9375 95.125 40.84375 95.289062 40.726562 95.421875 C 40.585938 95.578125 40.429688 95.695312 40.257812 95.769531 C 40.078125 95.84375 39.878906 95.878906 39.660156 95.882812 C 39.472656 95.878906 39.296875 95.847656 39.132812 95.78125 C 38.964844 95.714844 38.820312 95.613281 38.691406 95.476562 C 38.5625 95.347656 38.460938 95.1875 38.386719 95 C 38.308594 94.8125 38.269531 94.601562 38.273438 94.363281 C 38.269531 93.914062 38.402344 93.546875 38.667969 93.257812 C 38.929688 92.976562 39.273438 92.832031 39.703125 92.828125 C 40.105469 92.832031 40.441406 92.96875 40.707031 93.238281 C 40.96875 93.511719 41.097656 93.875 41.101562 94.324219 Z M 40.492188 94.328125 C 40.488281 94.183594 40.476562 94.03125 40.449219 93.867188 C 40.417969 93.707031 40.371094 93.566406 40.316406 93.449219 C 40.25 93.332031 40.167969 93.234375 40.070312 93.160156 C 39.964844 93.085938 39.84375 93.050781 39.699219 93.046875 C 39.546875 93.050781 39.417969 93.085938 39.3125 93.160156 C 39.203125 93.238281 39.113281 93.339844 39.050781 93.464844 C 38.984375 93.585938 38.941406 93.722656 38.917969 93.875 C 38.890625 94.027344 38.878906 94.175781 38.882812 94.3125 C 38.878906 94.503906 38.894531 94.675781 38.925781 94.835938 C 38.957031 94.996094 39.003906 95.140625 39.074219 95.261719 C 39.136719 95.390625 39.222656 95.488281 39.324219 95.558594 C 39.425781 95.632812 39.550781 95.667969 39.699219 95.664062 C 39.941406 95.667969 40.132812 95.550781 40.277344 95.308594 C 40.417969 95.074219 40.488281 94.746094 40.492188 94.328125 Z M 44.707031 95.796875 L 43.292969 95.796875 L 43.292969 95.601562 C 43.332031 95.601562 43.382812 95.597656 43.441406 95.59375 C 43.492188 95.589844 43.535156 95.582031 43.574219 95.570312 C 43.625 95.554688 43.667969 95.523438 43.695312 95.476562 C 43.71875 95.433594 43.730469 95.375 43.734375 95.304688 L 43.734375 93.820312 C 43.730469 93.617188 43.683594 93.457031 43.589844 93.347656 C 43.492188 93.238281 43.375 93.183594 43.238281 93.179688 C 43.132812 93.183594 43.035156 93.199219 42.953125 93.226562 C 42.863281 93.261719 42.789062 93.300781 42.722656 93.34375 C 42.65625 93.394531 42.601562 93.445312 42.566406 93.492188 C 42.527344 93.546875 42.5 93.585938 42.484375 93.613281 L 42.484375 95.273438 C 42.480469 95.34375 42.496094 95.398438 42.523438 95.441406 C 42.550781 95.484375 42.589844 95.515625 42.648438 95.539062 C 42.6875 95.5625 42.734375 95.578125 42.78125 95.585938 C 42.828125 95.59375 42.875 95.601562 42.929688 95.601562 L 42.929688 95.796875 L 41.515625 95.796875 L 41.515625 95.601562 C 41.558594 95.601562 41.601562 95.597656 41.652344 95.59375 C 41.699219 95.589844 41.742188 95.582031 41.78125 95.570312 C 41.828125 95.554688 41.867188 95.523438 41.898438 95.476562 C 41.921875 95.433594 41.9375 95.375 41.941406 95.304688 L 41.941406 93.523438 C 41.9375 93.457031 41.921875 93.398438 41.898438 93.339844 C 41.867188 93.289062 41.828125 93.242188 41.78125 93.203125 C 41.738281 93.183594 41.695312 93.167969 41.644531 93.152344 C 41.59375 93.144531 41.539062 93.136719 41.484375 93.132812 L 41.484375 92.9375 L 42.445312 92.875 L 42.484375 92.914062 L 42.484375 93.320312 L 42.5 93.320312 C 42.546875 93.277344 42.605469 93.222656 42.675781 93.152344 C 42.746094 93.089844 42.8125 93.035156 42.875 92.992188 C 42.945312 92.949219 43.03125 92.910156 43.132812 92.875 C 43.230469 92.847656 43.339844 92.832031 43.46875 92.828125 C 43.742188 92.832031 43.949219 92.917969 44.085938 93.089844 C 44.21875 93.261719 44.285156 93.492188 44.289062 93.777344 L 44.289062 95.28125 C 44.285156 95.351562 44.296875 95.40625 44.324219 95.445312 C 44.34375 95.488281 44.382812 95.523438 44.441406 95.546875 C 44.484375 95.566406 44.527344 95.578125 44.5625 95.585938 C 44.597656 95.59375 44.644531 95.601562 44.707031 95.601562 Z M 17.148438 90.296875 "/>
<path fill="none" stroke-width="1" stroke-linecap="butt" stroke-linejoin="miter" stroke="rgb(0%, 0%, 0%)" stroke-opacity="1" stroke-miterlimit="4" d="M 27 -36.167969 C 27 -43.867188 27 -53.027344 27 -61.582031 " transform="matrix(1, 0, 0, 1, 4, 184)"/>
<path fill-rule="nonzero" fill="rgb(0%, 0%, 0%)" fill-opacity="1" stroke-width="1" stroke-linecap="butt" stroke-linejoin="miter" stroke="rgb(0%, 0%, 0%)" stroke-opacity="1" stroke-miterlimit="4" d="M 23.5 -61.585938 L 27 -71.585938 L 30.5 -61.585938 Z M 23.5 -61.585938 " transform="matrix(1, 0, 0, 1, 4, 184)"/>
<path fill="none" stroke-width="1" stroke-linecap="butt" stroke-linejoin="miter" stroke="rgb(0%, 0%, 0%)" stroke-opacity="1" stroke-miterlimit="4" d="M 42.269531 -105.269531 C 52.195312 -115.195312 65.316406 -128.316406 76.4375 -139.4375 " transform="matrix(1, 0, 0, 1, 4, 184)"/>
<path fill-rule="nonzero" fill="rgb(0%, 0%, 0%)" fill-opacity="1" stroke-width="1" stroke-linecap="butt" stroke-linejoin="miter" stroke="rgb(0%, 0%, 0%)" stroke-opacity="1" stroke-miterlimit="4" d="M 74.207031 -142.15625 L 83.753906 -146.753906 L 79.15625 -137.207031 Z M 74.207031 -142.15625 " transform="matrix(1, 0, 0, 1, 4, 184)"/>
</svg>
