<?xml version="1.0" encoding="UTF-8"?>
<svg xmlns="http://www.w3.org/2000/svg" xmlns:xlink="http://www.w3.org/1999/xlink" width="206pt" height="188pt" viewBox="0 0 206 188" version="1.1">
<g id="surface1">
<rect x="0" y="0" width="206" height="188" style="fill:rgb(100%,100%,100%);fill-opacity:1;stroke:none;"/>
<path style="fill:none;stroke-width:1;stroke-linecap:butt;stroke-linejoin:miter;stroke:rgb(0%,0%,0%);stroke-opacity:1;stroke-miterlimit:4;" d="M 126 -162 C 126 -152.058594 113.910156 -144 99 -144 C 84.089844 -144 72 -152.058594 72 -162 C 72 -171.941406 84.089844 -180 99 -180 C 113.910156 -180 126 -171.941406 126 -162 Z M 126 -162 " transform="matrix(1,0,0,1,4,184)"/>
<path style=" stroke:none;fill-rule:nonzero;fill:rgb(0%,0%,0%);fill-opacity:1;" d="M 89.15625 22.441406 C 89.15625 22.050781 89.28125 21.722656 89.527344 21.457031 C 89.773438 21.1875 90.089844 21.050781 90.480469 21.050781 C 90.867188 21.050781 91.1875 21.179688 91.441406 21.433594 C 91.695312 21.6875 91.824219 22.027344 91.824219 22.449219 C 91.824219 22.835938 91.699219 23.175781 91.453125 23.460938 C 91.207031 23.746094 90.886719 23.890625 90.496094 23.890625 C 90.121094 23.890625 89.804688 23.753906 89.546875 23.480469 C 89.285156 23.203125 89.15625 22.855469 89.15625 22.441406 Z M 90.398438 21.230469 C 90.246094 21.230469 90.109375 21.277344 89.996094 21.378906 C 89.800781 21.558594 89.703125 21.863281 89.703125 22.300781 C 89.703125 22.648438 89.78125 22.972656 89.941406 23.273438 C 90.097656 23.574219 90.316406 23.722656 90.59375 23.722656 C 90.8125 23.722656 90.980469 23.625 91.101562 23.421875 C 91.21875 23.222656 91.277344 22.957031 91.277344 22.632812 C 91.277344 22.292969 91.203125 21.976562 91.050781 21.675781 C 90.902344 21.378906 90.683594 21.230469 90.398438 21.230469 Z M 92.023438 20.074219 L 92.023438 19.972656 C 92.246094 19.921875 92.449219 19.867188 92.625 19.804688 C 92.800781 19.742188 92.898438 19.710938 92.910156 19.710938 C 92.914062 19.722656 92.917969 19.734375 92.917969 19.746094 L 92.917969 21.53125 C 92.96875 21.4375 93.042969 21.347656 93.144531 21.261719 C 93.324219 21.117188 93.535156 21.042969 93.769531 21.042969 C 94.054688 21.042969 94.300781 21.164062 94.503906 21.40625 C 94.707031 21.648438 94.808594 21.964844 94.808594 22.351562 C 94.808594 22.765625 94.675781 23.121094 94.410156 23.414062 C 94.148438 23.707031 93.800781 23.855469 93.371094 23.855469 C 93.15625 23.855469 92.941406 23.8125 92.734375 23.726562 C 92.523438 23.640625 92.417969 23.554688 92.417969 23.46875 L 92.417969 20.371094 C 92.417969 20.257812 92.402344 20.179688 92.371094 20.132812 C 92.339844 20.082031 92.269531 20.058594 92.15625 20.058594 Z M 92.90625 23.371094 C 92.925781 23.472656 93 23.546875 93.136719 23.589844 C 93.269531 23.636719 93.386719 23.65625 93.488281 23.65625 C 93.761719 23.65625 93.964844 23.554688 94.097656 23.347656 C 94.230469 23.144531 94.292969 22.894531 94.292969 22.605469 C 94.292969 22.316406 94.234375 22.046875 94.109375 21.796875 C 93.988281 21.550781 93.789062 21.425781 93.511719 21.425781 C 93.375 21.425781 93.238281 21.46875 93.105469 21.554688 C 92.972656 21.640625 92.90625 21.746094 92.90625 21.878906 Z M 95.316406 22.878906 L 95.410156 22.878906 C 95.457031 23.101562 95.515625 23.269531 95.59375 23.390625 C 95.730469 23.609375 95.929688 23.71875 96.191406 23.71875 C 96.339844 23.71875 96.457031 23.679688 96.539062 23.597656 C 96.625 23.515625 96.667969 23.410156 96.667969 23.28125 C 96.667969 23.199219 96.644531 23.121094 96.59375 23.042969 C 96.546875 22.96875 96.460938 22.894531 96.335938 22.824219 L 96.007812 22.636719 C 95.769531 22.507812 95.589844 22.375 95.480469 22.246094 C 95.367188 22.113281 95.308594 21.960938 95.308594 21.78125 C 95.308594 21.5625 95.386719 21.382812 95.542969 21.242188 C 95.699219 21.101562 95.894531 21.03125 96.132812 21.03125 C 96.234375 21.03125 96.347656 21.050781 96.472656 21.089844 C 96.597656 21.128906 96.667969 21.148438 96.683594 21.148438 C 96.71875 21.148438 96.742188 21.144531 96.757812 21.136719 C 96.773438 21.125 96.789062 21.109375 96.800781 21.089844 L 96.871094 21.089844 L 96.890625 21.90625 L 96.800781 21.90625 C 96.761719 21.714844 96.707031 21.566406 96.640625 21.464844 C 96.519531 21.269531 96.347656 21.167969 96.117188 21.167969 C 95.980469 21.167969 95.871094 21.210938 95.792969 21.296875 C 95.714844 21.378906 95.675781 21.480469 95.675781 21.589844 C 95.675781 21.769531 95.8125 21.933594 96.082031 22.074219 L 96.46875 22.28125 C 96.886719 22.507812 97.09375 22.769531 97.09375 23.070312 C 97.09375 23.300781 97.007812 23.488281 96.832031 23.636719 C 96.660156 23.785156 96.433594 23.855469 96.15625 23.855469 C 96.039062 23.855469 95.90625 23.835938 95.757812 23.796875 C 95.609375 23.757812 95.519531 23.738281 95.492188 23.738281 C 95.46875 23.738281 95.449219 23.746094 95.433594 23.765625 C 95.414062 23.78125 95.402344 23.800781 95.390625 23.824219 L 95.316406 23.824219 Z M 98.714844 21.050781 C 98.988281 21.050781 99.230469 21.148438 99.4375 21.339844 C 99.644531 21.527344 99.746094 21.800781 99.746094 22.148438 L 97.886719 22.148438 C 97.90625 22.601562 98.011719 22.933594 98.195312 23.136719 C 98.378906 23.34375 98.601562 23.449219 98.855469 23.449219 C 99.058594 23.449219 99.230469 23.394531 99.371094 23.289062 C 99.511719 23.179688 99.644531 23.027344 99.761719 22.832031 L 99.863281 22.867188 C 99.785156 23.113281 99.636719 23.34375 99.414062 23.554688 C 99.195312 23.765625 98.925781 23.871094 98.609375 23.871094 C 98.242188 23.871094 97.957031 23.730469 97.757812 23.457031 C 97.558594 23.179688 97.457031 22.859375 97.457031 22.496094 C 97.457031 22.105469 97.574219 21.765625 97.804688 21.480469 C 98.039062 21.195312 98.339844 21.050781 98.714844 21.050781 Z M 98.542969 21.265625 C 98.320312 21.265625 98.152344 21.363281 98.035156 21.5625 C 97.972656 21.667969 97.925781 21.800781 97.898438 21.960938 L 99.136719 21.960938 C 99.113281 21.765625 99.078125 21.621094 99.023438 21.523438 C 98.929688 21.351562 98.769531 21.265625 98.542969 21.265625 Z M 100.027344 23.703125 C 100.207031 23.6875 100.324219 23.65625 100.382812 23.609375 C 100.441406 23.5625 100.472656 23.457031 100.472656 23.300781 L 100.472656 21.980469 C 100.472656 21.789062 100.453125 21.648438 100.417969 21.566406 C 100.382812 21.484375 100.316406 21.441406 100.21875 21.441406 C 100.199219 21.441406 100.175781 21.445312 100.140625 21.449219 C 100.109375 21.453125 100.078125 21.460938 100.039062 21.46875 L 100.039062 21.371094 C 100.152344 21.332031 100.265625 21.292969 100.382812 21.253906 C 100.5 21.210938 100.582031 21.183594 100.625 21.164062 C 100.722656 21.128906 100.824219 21.085938 100.929688 21.039062 C 100.941406 21.039062 100.949219 21.042969 100.953125 21.050781 C 100.957031 21.0625 100.957031 21.082031 100.957031 21.113281 L 100.957031 21.59375 C 101.082031 21.421875 101.203125 21.285156 101.320312 21.1875 C 101.4375 21.089844 101.554688 21.042969 101.679688 21.042969 C 101.78125 21.042969 101.863281 21.070312 101.925781 21.128906 C 101.988281 21.191406 102.019531 21.265625 102.019531 21.355469 C 102.019531 21.433594 101.996094 21.503906 101.945312 21.558594 C 101.898438 21.613281 101.839844 21.636719 101.765625 21.636719 C 101.691406 21.636719 101.617188 21.605469 101.542969 21.535156 C 101.46875 21.46875 101.40625 21.433594 101.367188 21.433594 C 101.296875 21.433594 101.210938 21.488281 101.113281 21.597656 C 101.015625 21.707031 100.964844 21.824219 100.964844 21.941406 L 100.964844 23.261719 C 100.964844 23.429688 101.003906 23.546875 101.082031 23.613281 C 101.160156 23.675781 101.289062 23.707031 101.46875 23.703125 L 101.46875 23.800781 L 100.027344 23.800781 Z M 103.289062 21.078125 L 103.289062 21.167969 C 103.1875 21.179688 103.117188 21.199219 103.074219 21.214844 C 103.03125 21.234375 103.011719 21.277344 103.011719 21.347656 C 103.011719 21.378906 103.015625 21.40625 103.023438 21.433594 C 103.03125 21.464844 103.046875 21.503906 103.070312 21.558594 L 103.679688 23.074219 L 104.207031 21.730469 C 104.230469 21.667969 104.253906 21.601562 104.277344 21.53125 C 104.300781 21.460938 104.3125 21.40625 104.3125 21.371094 C 104.3125 21.292969 104.273438 21.238281 104.203125 21.207031 C 104.160156 21.1875 104.101562 21.175781 104.027344 21.167969 L 104.027344 21.078125 L 104.859375 21.078125 L 104.859375 21.167969 C 104.765625 21.175781 104.695312 21.210938 104.652344 21.265625 C 104.609375 21.320312 104.550781 21.449219 104.46875 21.652344 L 103.625 23.761719 C 103.609375 23.796875 103.59375 23.824219 103.585938 23.835938 C 103.574219 23.847656 103.5625 23.855469 103.542969 23.855469 C 103.523438 23.855469 103.507812 23.84375 103.492188 23.824219 C 103.480469 23.800781 103.464844 23.773438 103.449219 23.738281 L 102.554688 21.59375 C 102.480469 21.421875 102.40625 21.300781 102.320312 21.238281 C 102.273438 21.203125 102.203125 21.183594 102.109375 21.167969 L 102.109375 21.078125 Z M 106.71875 22.175781 C 106.496094 22.25 106.308594 22.332031 106.164062 22.425781 C 105.882812 22.597656 105.742188 22.792969 105.742188 23.015625 C 105.742188 23.191406 105.800781 23.324219 105.917969 23.410156 C 105.992188 23.464844 106.078125 23.488281 106.171875 23.488281 C 106.300781 23.488281 106.425781 23.453125 106.542969 23.382812 C 106.660156 23.308594 106.71875 23.21875 106.71875 23.105469 Z M 105.21875 23.21875 C 105.21875 22.933594 105.359375 22.699219 105.644531 22.507812 C 105.824219 22.390625 106.183594 22.230469 106.71875 22.03125 L 106.71875 21.78125 C 106.71875 21.582031 106.699219 21.445312 106.660156 21.367188 C 106.59375 21.234375 106.457031 21.167969 106.25 21.167969 C 106.148438 21.167969 106.054688 21.195312 105.964844 21.246094 C 105.875 21.300781 105.828125 21.371094 105.828125 21.464844 C 105.828125 21.488281 105.835938 21.527344 105.84375 21.582031 C 105.851562 21.636719 105.859375 21.671875 105.859375 21.6875 C 105.859375 21.796875 105.820312 21.875 105.75 21.917969 C 105.710938 21.941406 105.660156 21.957031 105.601562 21.957031 C 105.515625 21.957031 105.449219 21.925781 105.402344 21.867188 C 105.355469 21.808594 105.332031 21.746094 105.332031 21.675781 C 105.332031 21.539062 105.414062 21.398438 105.585938 21.246094 C 105.753906 21.097656 106 21.023438 106.328125 21.023438 C 106.707031 21.023438 106.960938 21.144531 107.097656 21.394531 C 107.171875 21.527344 107.207031 21.722656 107.207031 21.980469 L 107.207031 23.15625 C 107.207031 23.269531 107.214844 23.347656 107.230469 23.390625 C 107.253906 23.464844 107.308594 23.503906 107.386719 23.503906 C 107.433594 23.503906 107.46875 23.496094 107.5 23.484375 C 107.527344 23.472656 107.578125 23.4375 107.652344 23.386719 L 107.652344 23.535156 C 107.589844 23.613281 107.523438 23.675781 107.449219 23.722656 C 107.339844 23.796875 107.226562 23.835938 107.117188 23.835938 C 106.984375 23.835938 106.886719 23.792969 106.828125 23.707031 C 106.765625 23.621094 106.734375 23.519531 106.726562 23.398438 C 106.578125 23.527344 106.453125 23.625 106.347656 23.6875 C 106.171875 23.792969 106 23.84375 105.839844 23.84375 C 105.671875 23.84375 105.527344 23.785156 105.40625 23.667969 C 105.28125 23.550781 105.21875 23.398438 105.21875 23.21875 Z M 109.191406 21.097656 L 109.191406 21.308594 L 108.59375 21.308594 L 108.585938 22.996094 C 108.585938 23.144531 108.601562 23.257812 108.625 23.335938 C 108.671875 23.46875 108.765625 23.535156 108.898438 23.535156 C 108.96875 23.535156 109.03125 23.519531 109.082031 23.488281 C 109.132812 23.453125 109.195312 23.402344 109.261719 23.328125 L 109.335938 23.394531 L 109.273438 23.480469 C 109.171875 23.617188 109.0625 23.714844 108.949219 23.769531 C 108.835938 23.828125 108.726562 23.855469 108.621094 23.855469 C 108.390625 23.855469 108.234375 23.753906 108.152344 23.550781 C 108.109375 23.4375 108.085938 23.285156 108.085938 23.085938 L 108.085938 21.308594 L 107.765625 21.308594 C 107.757812 21.304688 107.75 21.300781 107.746094 21.292969 C 107.742188 21.285156 107.738281 21.277344 107.738281 21.269531 C 107.738281 21.25 107.742188 21.234375 107.75 21.222656 C 107.757812 21.214844 107.789062 21.1875 107.835938 21.148438 C 107.96875 21.039062 108.066406 20.949219 108.125 20.878906 C 108.183594 20.808594 108.324219 20.625 108.546875 20.328125 C 108.570312 20.328125 108.585938 20.332031 108.589844 20.335938 C 108.59375 20.339844 108.597656 20.355469 108.597656 20.378906 L 108.597656 21.097656 Z M 109.820312 20.019531 C 109.820312 19.933594 109.851562 19.863281 109.90625 19.800781 C 109.964844 19.742188 110.039062 19.710938 110.125 19.710938 C 110.210938 19.710938 110.28125 19.742188 110.339844 19.800781 C 110.398438 19.859375 110.429688 19.933594 110.429688 20.019531 C 110.429688 20.101562 110.398438 20.175781 110.339844 20.234375 C 110.28125 20.292969 110.210938 20.324219 110.125 20.324219 C 110.039062 20.324219 109.96875 20.292969 109.90625 20.234375 C 109.847656 20.175781 109.820312 20.101562 109.820312 20.019531 Z M 109.445312 23.71875 C 109.65625 23.699219 109.785156 23.664062 109.839844 23.613281 C 109.894531 23.558594 109.921875 23.417969 109.921875 23.191406 L 109.921875 21.792969 C 109.921875 21.667969 109.914062 21.578125 109.898438 21.53125 C 109.867188 21.449219 109.804688 21.410156 109.710938 21.410156 C 109.691406 21.410156 109.667969 21.410156 109.648438 21.417969 C 109.628906 21.421875 109.570312 21.433594 109.472656 21.464844 L 109.472656 21.371094 L 109.597656 21.332031 C 109.9375 21.21875 110.179688 21.136719 110.3125 21.078125 C 110.367188 21.054688 110.402344 21.042969 110.417969 21.042969 C 110.421875 21.058594 110.421875 21.074219 110.421875 21.089844 L 110.421875 23.191406 C 110.421875 23.414062 110.449219 23.554688 110.503906 23.609375 C 110.558594 23.667969 110.679688 23.703125 110.867188 23.71875 L 110.867188 23.800781 L 109.445312 23.800781 Z M 111.148438 22.441406 C 111.148438 22.050781 111.273438 21.722656 111.519531 21.457031 C 111.765625 21.1875 112.082031 21.050781 112.472656 21.050781 C 112.859375 21.050781 113.179688 21.179688 113.433594 21.433594 C 113.6875 21.6875 113.816406 22.027344 113.816406 22.449219 C 113.816406 22.835938 113.691406 23.175781 113.445312 23.460938 C 113.199219 23.746094 112.878906 23.890625 112.488281 23.890625 C 112.113281 23.890625 111.796875 23.753906 111.539062 23.480469 C 111.277344 23.203125 111.148438 22.855469 111.148438 22.441406 Z M 112.390625 21.230469 C 112.238281 21.230469 112.101562 21.277344 111.988281 21.378906 C 111.792969 21.558594 111.695312 21.863281 111.695312 22.300781 C 111.695312 22.648438 111.773438 22.972656 111.933594 23.273438 C 112.089844 23.574219 112.308594 23.722656 112.585938 23.722656 C 112.804688 23.722656 112.972656 23.625 113.09375 23.421875 C 113.210938 23.222656 113.269531 22.957031 113.269531 22.632812 C 113.269531 22.292969 113.195312 21.976562 113.042969 21.675781 C 112.894531 21.378906 112.675781 21.230469 112.390625 21.230469 Z M 114.105469 23.71875 C 114.242188 23.699219 114.339844 23.667969 114.394531 23.613281 C 114.449219 23.5625 114.480469 23.449219 114.480469 23.269531 L 114.480469 21.78125 C 114.480469 21.65625 114.46875 21.570312 114.445312 21.519531 C 114.40625 21.445312 114.332031 21.40625 114.214844 21.40625 C 114.199219 21.40625 114.179688 21.410156 114.160156 21.410156 C 114.144531 21.410156 114.121094 21.414062 114.09375 21.417969 L 114.09375 21.316406 C 114.171875 21.292969 114.363281 21.230469 114.660156 21.136719 L 114.9375 21.042969 C 114.949219 21.042969 114.957031 21.050781 114.960938 21.058594 C 114.964844 21.066406 114.964844 21.082031 114.964844 21.097656 L 114.964844 21.53125 C 115.144531 21.363281 115.285156 21.246094 115.386719 21.183594 C 115.539062 21.089844 115.699219 21.042969 115.863281 21.042969 C 115.996094 21.042969 116.117188 21.078125 116.226562 21.15625 C 116.4375 21.304688 116.542969 21.566406 116.542969 21.949219 L 116.542969 23.316406 C 116.542969 23.457031 116.570312 23.558594 116.628906 23.621094 C 116.683594 23.683594 116.777344 23.714844 116.910156 23.71875 L 116.910156 23.800781 L 115.660156 23.800781 L 115.660156 23.71875 C 115.800781 23.699219 115.902344 23.660156 115.957031 23.601562 C 116.015625 23.542969 116.042969 23.410156 116.042969 23.210938 L 116.042969 21.960938 C 116.042969 21.792969 116.011719 21.652344 115.949219 21.542969 C 115.886719 21.433594 115.773438 21.378906 115.605469 21.378906 C 115.488281 21.378906 115.371094 21.417969 115.253906 21.496094 C 115.1875 21.539062 115.101562 21.613281 114.996094 21.71875 L 114.996094 23.359375 C 114.996094 23.5 115.027344 23.59375 115.089844 23.640625 C 115.152344 23.6875 115.25 23.714844 115.386719 23.71875 L 115.386719 23.800781 L 114.105469 23.800781 Z M 89.003906 19.300781 "/>
<path style="fill:none;stroke-width:1;stroke-linecap:butt;stroke-linejoin:miter;stroke:rgb(0%,0%,0%);stroke-opacity:1;stroke-miterlimit:4;" d="M 198 -90 C 198 -80.058594 185.910156 -72 171 -72 C 156.089844 -72 144 -80.058594 144 -90 C 144 -99.941406 156.089844 -108 171 -108 C 185.910156 -108 198 -99.941406 198 -90 Z M 198 -90 " transform="matrix(1,0,0,1,4,184)"/>
<path style=" stroke:none;fill-rule:nonzero;fill:rgb(0%,0%,0%);fill-opacity:1;" d="M 164.160156 92.019531 C 164.160156 91.933594 164.191406 91.863281 164.246094 91.800781 C 164.304688 91.742188 164.378906 91.710938 164.464844 91.710938 C 164.550781 91.710938 164.621094 91.742188 164.679688 91.800781 C 164.738281 91.859375 164.769531 91.933594 164.769531 92.019531 C 164.769531 92.101562 164.738281 92.175781 164.679688 92.234375 C 164.621094 92.292969 164.550781 92.324219 164.464844 92.324219 C 164.378906 92.324219 164.308594 92.292969 164.246094 92.234375 C 164.1875 92.175781 164.160156 92.101562 164.160156 92.019531 Z M 163.785156 95.71875 C 163.996094 95.699219 164.125 95.664062 164.179688 95.613281 C 164.234375 95.558594 164.261719 95.417969 164.261719 95.191406 L 164.261719 93.792969 C 164.261719 93.667969 164.253906 93.578125 164.238281 93.53125 C 164.207031 93.449219 164.144531 93.410156 164.050781 93.410156 C 164.03125 93.410156 164.007812 93.410156 163.988281 93.417969 C 163.96875 93.421875 163.910156 93.433594 163.8125 93.464844 L 163.8125 93.371094 L 163.9375 93.332031 C 164.277344 93.21875 164.519531 93.136719 164.652344 93.078125 C 164.707031 93.054688 164.742188 93.042969 164.757812 93.042969 C 164.761719 93.058594 164.761719 93.074219 164.761719 93.089844 L 164.761719 95.191406 C 164.761719 95.414062 164.789062 95.554688 164.84375 95.609375 C 164.898438 95.667969 165.019531 95.703125 165.207031 95.71875 L 165.207031 95.800781 L 163.785156 95.800781 Z M 165.445312 95.71875 C 165.582031 95.699219 165.679688 95.667969 165.734375 95.613281 C 165.789062 95.5625 165.820312 95.449219 165.820312 95.269531 L 165.820312 93.78125 C 165.820312 93.65625 165.808594 93.570312 165.785156 93.519531 C 165.746094 93.445312 165.671875 93.40625 165.554688 93.40625 C 165.539062 93.40625 165.519531 93.410156 165.5 93.410156 C 165.484375 93.410156 165.460938 93.414062 165.433594 93.417969 L 165.433594 93.316406 C 165.511719 93.292969 165.703125 93.230469 166 93.136719 L 166.277344 93.042969 C 166.289062 93.042969 166.296875 93.050781 166.300781 93.058594 C 166.304688 93.066406 166.304688 93.082031 166.304688 93.097656 L 166.304688 93.53125 C 166.484375 93.363281 166.625 93.246094 166.726562 93.183594 C 166.878906 93.089844 167.039062 93.042969 167.203125 93.042969 C 167.335938 93.042969 167.457031 93.078125 167.566406 93.15625 C 167.777344 93.304688 167.882812 93.566406 167.882812 93.949219 L 167.882812 95.316406 C 167.882812 95.457031 167.910156 95.558594 167.96875 95.621094 C 168.023438 95.683594 168.117188 95.714844 168.25 95.71875 L 168.25 95.800781 L 167 95.800781 L 167 95.71875 C 167.140625 95.699219 167.242188 95.660156 167.296875 95.601562 C 167.355469 95.542969 167.382812 95.410156 167.382812 95.210938 L 167.382812 93.960938 C 167.382812 93.792969 167.351562 93.652344 167.289062 93.542969 C 167.226562 93.433594 167.113281 93.378906 166.945312 93.378906 C 166.828125 93.378906 166.710938 93.417969 166.59375 93.496094 C 166.527344 93.539062 166.441406 93.613281 166.335938 93.71875 L 166.335938 95.359375 C 166.335938 95.5 166.367188 95.59375 166.429688 95.640625 C 166.492188 95.6875 166.589844 95.714844 166.726562 95.71875 L 166.726562 95.800781 L 165.445312 95.800781 Z M 169.757812 93.03125 C 169.898438 93.03125 170.03125 93.0625 170.148438 93.125 C 170.226562 93.167969 170.304688 93.222656 170.375 93.296875 L 170.375 92.363281 C 170.375 92.246094 170.363281 92.164062 170.335938 92.117188 C 170.308594 92.074219 170.246094 92.050781 170.148438 92.050781 C 170.125 92.050781 170.101562 92.050781 170.085938 92.054688 C 170.066406 92.054688 170.027344 92.058594 169.96875 92.066406 L 169.96875 91.96875 L 170.207031 91.90625 C 170.296875 91.882812 170.382812 91.859375 170.472656 91.832031 C 170.558594 91.808594 170.636719 91.785156 170.703125 91.761719 C 170.734375 91.75 170.785156 91.730469 170.859375 91.707031 L 170.875 91.710938 L 170.871094 92.019531 C 170.867188 92.128906 170.867188 92.246094 170.863281 92.363281 C 170.863281 92.480469 170.859375 92.597656 170.859375 92.714844 L 170.855469 95.105469 C 170.855469 95.234375 170.871094 95.324219 170.902344 95.371094 C 170.933594 95.421875 171.015625 95.449219 171.152344 95.449219 C 171.171875 95.449219 171.195312 95.449219 171.214844 95.449219 C 171.238281 95.449219 171.257812 95.445312 171.28125 95.441406 L 171.28125 95.535156 C 171.269531 95.539062 171.125 95.589844 170.855469 95.683594 L 170.394531 95.855469 L 170.375 95.832031 L 170.375 95.46875 C 170.265625 95.589844 170.171875 95.675781 170.089844 95.722656 C 169.949219 95.8125 169.78125 95.855469 169.59375 95.855469 C 169.261719 95.855469 168.996094 95.726562 168.789062 95.472656 C 168.582031 95.214844 168.480469 94.917969 168.480469 94.578125 C 168.480469 94.15625 168.601562 93.792969 168.851562 93.488281 C 169.097656 93.183594 169.398438 93.03125 169.757812 93.03125 Z M 169.867188 95.539062 C 170.019531 95.539062 170.140625 95.496094 170.234375 95.40625 C 170.328125 95.316406 170.375 95.230469 170.375 95.152344 L 170.375 93.894531 C 170.375 93.640625 170.308594 93.460938 170.171875 93.355469 C 170.035156 93.25 169.902344 93.199219 169.773438 93.199219 C 169.527344 93.199219 169.335938 93.308594 169.199219 93.527344 C 169.0625 93.746094 168.996094 94.011719 168.996094 94.332031 C 168.996094 94.644531 169.066406 94.925781 169.214844 95.171875 C 169.359375 95.417969 169.578125 95.539062 169.867188 95.539062 Z M 172.265625 93.089844 L 172.265625 94.964844 C 172.265625 95.097656 172.28125 95.203125 172.320312 95.28125 C 172.390625 95.429688 172.523438 95.503906 172.71875 95.503906 C 172.851562 95.503906 172.980469 95.460938 173.109375 95.371094 C 173.179688 95.324219 173.253906 95.257812 173.328125 95.171875 L 173.328125 93.566406 C 173.328125 93.414062 173.296875 93.316406 173.242188 93.269531 C 173.183594 93.222656 173.0625 93.195312 172.890625 93.183594 L 172.890625 93.089844 L 173.835938 93.089844 L 173.835938 95.152344 C 173.835938 95.285156 173.859375 95.375 173.90625 95.425781 C 173.953125 95.472656 174.054688 95.496094 174.210938 95.488281 L 174.210938 95.574219 C 174.101562 95.601562 174.023438 95.625 173.972656 95.636719 C 173.921875 95.652344 173.835938 95.679688 173.71875 95.71875 C 173.667969 95.738281 173.554688 95.777344 173.382812 95.84375 C 173.375 95.84375 173.367188 95.839844 173.367188 95.832031 C 173.363281 95.824219 173.363281 95.8125 173.363281 95.800781 L 173.363281 95.328125 C 173.230469 95.488281 173.109375 95.605469 173 95.679688 C 172.835938 95.796875 172.65625 95.855469 172.472656 95.855469 C 172.304688 95.855469 172.140625 95.796875 171.992188 95.675781 C 171.839844 95.554688 171.765625 95.355469 171.765625 95.074219 L 171.765625 93.554688 C 171.765625 93.398438 171.730469 93.292969 171.664062 93.238281 C 171.621094 93.207031 171.53125 93.183594 171.390625 93.167969 L 171.390625 93.089844 Z M 175.828125 93.039062 C 176.070312 93.039062 176.28125 93.101562 176.457031 93.226562 C 176.632812 93.351562 176.722656 93.492188 176.722656 93.640625 C 176.722656 93.707031 176.703125 93.765625 176.65625 93.820312 C 176.609375 93.878906 176.542969 93.90625 176.449219 93.90625 C 176.378906 93.90625 176.320312 93.882812 176.269531 93.835938 C 176.21875 93.789062 176.179688 93.71875 176.15625 93.628906 L 176.121094 93.488281 C 176.09375 93.386719 176.050781 93.3125 175.988281 93.269531 C 175.921875 93.230469 175.839844 93.207031 175.734375 93.207031 C 175.511719 93.207031 175.324219 93.304688 175.167969 93.5 C 175.015625 93.695312 174.9375 93.953125 174.9375 94.273438 C 174.9375 94.570312 175.023438 94.832031 175.191406 95.066406 C 175.359375 95.300781 175.589844 95.417969 175.875 95.417969 C 176.078125 95.417969 176.261719 95.355469 176.417969 95.222656 C 176.507812 95.144531 176.609375 95.023438 176.722656 94.855469 L 176.804688 94.90625 C 176.695312 95.140625 176.578125 95.328125 176.453125 95.464844 C 176.21875 95.726562 175.945312 95.855469 175.632812 95.855469 C 175.328125 95.855469 175.058594 95.738281 174.824219 95.496094 C 174.589844 95.253906 174.472656 94.929688 174.472656 94.519531 C 174.472656 94.113281 174.601562 93.765625 174.859375 93.472656 C 175.113281 93.183594 175.4375 93.039062 175.828125 93.039062 Z M 178.527344 93.097656 L 178.527344 93.308594 L 177.929688 93.308594 L 177.921875 94.996094 C 177.921875 95.144531 177.9375 95.257812 177.960938 95.335938 C 178.007812 95.46875 178.101562 95.535156 178.234375 95.535156 C 178.304688 95.535156 178.367188 95.519531 178.417969 95.488281 C 178.46875 95.453125 178.53125 95.402344 178.597656 95.328125 L 178.671875 95.394531 L 178.609375 95.480469 C 178.507812 95.617188 178.398438 95.714844 178.285156 95.769531 C 178.171875 95.828125 178.0625 95.855469 177.957031 95.855469 C 177.726562 95.855469 177.570312 95.753906 177.488281 95.550781 C 177.445312 95.4375 177.421875 95.285156 177.421875 95.085938 L 177.421875 93.308594 L 177.101562 93.308594 C 177.09375 93.304688 177.085938 93.300781 177.082031 93.292969 C 177.078125 93.285156 177.074219 93.277344 177.074219 93.269531 C 177.074219 93.25 177.078125 93.234375 177.085938 93.222656 C 177.09375 93.214844 177.125 93.1875 177.171875 93.148438 C 177.304688 93.039062 177.402344 92.949219 177.460938 92.878906 C 177.519531 92.808594 177.660156 92.625 177.882812 92.328125 C 177.90625 92.328125 177.921875 92.332031 177.925781 92.335938 C 177.929688 92.339844 177.933594 92.355469 177.933594 92.378906 L 177.933594 93.097656 Z M 179.15625 92.019531 C 179.15625 91.933594 179.1875 91.863281 179.242188 91.800781 C 179.300781 91.742188 179.375 91.710938 179.460938 91.710938 C 179.546875 91.710938 179.617188 91.742188 179.675781 91.800781 C 179.734375 91.859375 179.765625 91.933594 179.765625 92.019531 C 179.765625 92.101562 179.734375 92.175781 179.675781 92.234375 C 179.617188 92.292969 179.546875 92.324219 179.460938 92.324219 C 179.375 92.324219 179.304688 92.292969 179.242188 92.234375 C 179.183594 92.175781 179.15625 92.101562 179.15625 92.019531 Z M 178.78125 95.71875 C 178.992188 95.699219 179.121094 95.664062 179.175781 95.613281 C 179.230469 95.558594 179.257812 95.417969 179.257812 95.191406 L 179.257812 93.792969 C 179.257812 93.667969 179.25 93.578125 179.234375 93.53125 C 179.203125 93.449219 179.140625 93.410156 179.046875 93.410156 C 179.027344 93.410156 179.003906 93.410156 178.984375 93.417969 C 178.964844 93.421875 178.90625 93.433594 178.808594 93.464844 L 178.808594 93.371094 L 178.933594 93.332031 C 179.273438 93.21875 179.515625 93.136719 179.648438 93.078125 C 179.703125 93.054688 179.738281 93.042969 179.753906 93.042969 C 179.757812 93.058594 179.757812 93.074219 179.757812 93.089844 L 179.757812 95.191406 C 179.757812 95.414062 179.785156 95.554688 179.839844 95.609375 C 179.894531 95.667969 180.015625 95.703125 180.203125 95.71875 L 180.203125 95.800781 L 178.78125 95.800781 Z M 180.484375 94.441406 C 180.484375 94.050781 180.609375 93.722656 180.855469 93.457031 C 181.101562 93.1875 181.417969 93.050781 181.808594 93.050781 C 182.195312 93.050781 182.515625 93.179688 182.769531 93.433594 C 183.023438 93.6875 183.152344 94.027344 183.152344 94.449219 C 183.152344 94.835938 183.027344 95.175781 182.78125 95.460938 C 182.535156 95.746094 182.214844 95.890625 181.824219 95.890625 C 181.449219 95.890625 181.132812 95.753906 180.875 95.480469 C 180.613281 95.203125 180.484375 94.855469 180.484375 94.441406 Z M 181.726562 93.230469 C 181.574219 93.230469 181.4375 93.277344 181.324219 93.378906 C 181.128906 93.558594 181.03125 93.863281 181.03125 94.300781 C 181.03125 94.648438 181.109375 94.972656 181.269531 95.273438 C 181.425781 95.574219 181.644531 95.722656 181.921875 95.722656 C 182.140625 95.722656 182.308594 95.625 182.429688 95.421875 C 182.546875 95.222656 182.605469 94.957031 182.605469 94.632812 C 182.605469 94.292969 182.53125 93.976562 182.378906 93.675781 C 182.230469 93.378906 182.011719 93.230469 181.726562 93.230469 Z M 183.441406 95.71875 C 183.578125 95.699219 183.675781 95.667969 183.730469 95.613281 C 183.785156 95.5625 183.816406 95.449219 183.816406 95.269531 L 183.816406 93.78125 C 183.816406 93.65625 183.804688 93.570312 183.78125 93.519531 C 183.742188 93.445312 183.667969 93.40625 183.550781 93.40625 C 183.535156 93.40625 183.515625 93.410156 183.496094 93.410156 C 183.480469 93.410156 183.457031 93.414062 183.429688 93.417969 L 183.429688 93.316406 C 183.507812 93.292969 183.699219 93.230469 183.996094 93.136719 L 184.273438 93.042969 C 184.285156 93.042969 184.292969 93.050781 184.296875 93.058594 C 184.300781 93.066406 184.300781 93.082031 184.300781 93.097656 L 184.300781 93.53125 C 184.480469 93.363281 184.621094 93.246094 184.722656 93.183594 C 184.875 93.089844 185.035156 93.042969 185.199219 93.042969 C 185.332031 93.042969 185.453125 93.078125 185.5625 93.15625 C 185.773438 93.304688 185.878906 93.566406 185.878906 93.949219 L 185.878906 95.316406 C 185.878906 95.457031 185.90625 95.558594 185.964844 95.621094 C 186.019531 95.683594 186.113281 95.714844 186.246094 95.71875 L 186.246094 95.800781 L 184.996094 95.800781 L 184.996094 95.71875 C 185.136719 95.699219 185.238281 95.660156 185.292969 95.601562 C 185.351562 95.542969 185.378906 95.410156 185.378906 95.210938 L 185.378906 93.960938 C 185.378906 93.792969 185.347656 93.652344 185.285156 93.542969 C 185.222656 93.433594 185.109375 93.378906 184.941406 93.378906 C 184.824219 93.378906 184.707031 93.417969 184.589844 93.496094 C 184.523438 93.539062 184.4375 93.613281 184.332031 93.71875 L 184.332031 95.359375 C 184.332031 95.5 184.363281 95.59375 184.425781 95.640625 C 184.488281 95.6875 184.585938 95.714844 184.722656 95.71875 L 184.722656 95.800781 L 183.441406 95.800781 Z M 163.667969 91.300781 "/>
<path style="fill:none;stroke-width:1;stroke-linecap:butt;stroke-linejoin:miter;stroke:rgb(0%,0%,0%);stroke-opacity:1;stroke-miterlimit:4;" d="M 114.269531 -146.730469 C 124.195312 -136.804688 137.316406 -123.683594 148.4375 -112.5625 " transform="matrix(1,0,0,1,4,184)"/>
<path style="fill-rule:nonzero;fill:rgb(0%,0%,0%);fill-opacity:1;stroke-width:1;stroke-linecap:butt;stroke-linejoin:miter;stroke:rgb(0%,0%,0%);stroke-opacity:1;stroke-miterlimit:4;" d="M 151.15625 -114.792969 L 155.753906 -105.246094 L 146.207031 -109.84375 Z M 151.15625 -114.792969 " transform="matrix(1,0,0,1,4,184)"/>
<path style="fill:none;stroke-width:1;stroke-linecap:butt;stroke-linejoin:miter;stroke:rgb(0%,0%,0%);stroke-opacity:1;stroke-miterlimit:4;" d="M 198 -18 C 198 -8.058594 185.910156 0 171 0 C 156.089844 0 144 -8.058594 144 -18 C 144 -27.941406 156.089844 -36 171 -36 C 185.910156 -36 198 -27.941406 198 -18 Z M 198 -18 " transform="matrix(1,0,0,1,4,184)"/>
<path style=" stroke:none;fill-rule:nonzero;fill:rgb(0%,0%,0%);fill-opacity:1;" d="M 164.59375 165.03125 C 164.734375 165.03125 164.867188 165.0625 164.984375 165.125 C 165.0625 165.167969 165.140625 165.222656 165.210938 165.296875 L 165.210938 164.363281 C 165.210938 164.246094 165.199219 164.164062 165.171875 164.117188 C 165.144531 164.074219 165.082031 164.050781 164.984375 164.050781 C 164.960938 164.050781 164.9375 164.050781 164.921875 164.054688 C 164.902344 164.054688 164.863281 164.058594 164.804688 164.066406 L 164.804688 163.96875 L 165.042969 163.90625 C 165.132812 163.882812 165.21875 163.859375 165.308594 163.832031 C 165.394531 163.808594 165.472656 163.785156 165.539062 163.761719 C 165.570312 163.75 165.621094 163.730469 165.695312 163.707031 L 165.710938 163.710938 L 165.707031 164.019531 C 165.703125 164.128906 165.703125 164.246094 165.699219 164.363281 C 165.699219 164.480469 165.695312 164.597656 165.695312 164.714844 L 165.691406 167.105469 C 165.691406 167.234375 165.707031 167.324219 165.738281 167.371094 C 165.769531 167.421875 165.851562 167.449219 165.988281 167.449219 C 166.007812 167.449219 166.03125 167.449219 166.050781 167.449219 C 166.074219 167.449219 166.09375 167.445312 166.117188 167.441406 L 166.117188 167.535156 C 166.105469 167.539062 165.960938 167.589844 165.691406 167.683594 L 165.230469 167.855469 L 165.210938 167.832031 L 165.210938 167.46875 C 165.101562 167.589844 165.007812 167.675781 164.925781 167.722656 C 164.785156 167.8125 164.617188 167.855469 164.429688 167.855469 C 164.097656 167.855469 163.832031 167.726562 163.625 167.472656 C 163.417969 167.214844 163.316406 166.917969 163.316406 166.578125 C 163.316406 166.15625 163.4375 165.792969 163.6875 165.488281 C 163.933594 165.183594 164.234375 165.03125 164.59375 165.03125 Z M 164.703125 167.539062 C 164.855469 167.539062 164.976562 167.496094 165.070312 167.40625 C 165.164062 167.316406 165.210938 167.230469 165.210938 167.152344 L 165.210938 165.894531 C 165.210938 165.640625 165.144531 165.460938 165.007812 165.355469 C 164.871094 165.25 164.738281 165.199219 164.609375 165.199219 C 164.363281 165.199219 164.171875 165.308594 164.035156 165.527344 C 163.898438 165.746094 163.832031 166.011719 163.832031 166.332031 C 163.832031 166.644531 163.902344 166.925781 164.050781 167.171875 C 164.195312 167.417969 164.414062 167.539062 164.703125 167.539062 Z M 167.546875 165.050781 C 167.820312 165.050781 168.0625 165.148438 168.269531 165.339844 C 168.476562 165.527344 168.578125 165.800781 168.578125 166.148438 L 166.71875 166.148438 C 166.738281 166.601562 166.84375 166.933594 167.027344 167.136719 C 167.210938 167.34375 167.433594 167.449219 167.6875 167.449219 C 167.890625 167.449219 168.0625 167.394531 168.203125 167.289062 C 168.34375 167.179688 168.476562 167.027344 168.59375 166.832031 L 168.695312 166.867188 C 168.617188 167.113281 168.46875 167.34375 168.246094 167.554688 C 168.027344 167.765625 167.757812 167.871094 167.441406 167.871094 C 167.074219 167.871094 166.789062 167.730469 166.589844 167.457031 C 166.390625 167.179688 166.289062 166.859375 166.289062 166.496094 C 166.289062 166.105469 166.40625 165.765625 166.636719 165.480469 C 166.871094 165.195312 167.171875 165.050781 167.546875 165.050781 Z M 167.375 165.265625 C 167.152344 165.265625 166.984375 165.363281 166.867188 165.5625 C 166.804688 165.667969 166.757812 165.800781 166.730469 165.960938 L 167.96875 165.960938 C 167.945312 165.765625 167.910156 165.621094 167.855469 165.523438 C 167.761719 165.351562 167.601562 165.265625 167.375 165.265625 Z M 170.257812 165.03125 C 170.398438 165.03125 170.53125 165.0625 170.648438 165.125 C 170.726562 165.167969 170.804688 165.222656 170.875 165.296875 L 170.875 164.363281 C 170.875 164.246094 170.863281 164.164062 170.835938 164.117188 C 170.808594 164.074219 170.746094 164.050781 170.648438 164.050781 C 170.625 164.050781 170.601562 164.050781 170.585938 164.054688 C 170.566406 164.054688 170.527344 164.058594 170.46875 164.066406 L 170.46875 163.96875 L 170.707031 163.90625 C 170.796875 163.882812 170.882812 163.859375 170.972656 163.832031 C 171.058594 163.808594 171.136719 163.785156 171.203125 163.761719 C 171.234375 163.75 171.285156 163.730469 171.359375 163.707031 L 171.375 163.710938 L 171.371094 164.019531 C 171.367188 164.128906 171.367188 164.246094 171.363281 164.363281 C 171.363281 164.480469 171.359375 164.597656 171.359375 164.714844 L 171.355469 167.105469 C 171.355469 167.234375 171.371094 167.324219 171.402344 167.371094 C 171.433594 167.421875 171.515625 167.449219 171.652344 167.449219 C 171.671875 167.449219 171.695312 167.449219 171.714844 167.449219 C 171.738281 167.449219 171.757812 167.445312 171.78125 167.441406 L 171.78125 167.535156 C 171.769531 167.539062 171.625 167.589844 171.355469 167.683594 L 170.894531 167.855469 L 170.875 167.832031 L 170.875 167.46875 C 170.765625 167.589844 170.671875 167.675781 170.589844 167.722656 C 170.449219 167.8125 170.28125 167.855469 170.09375 167.855469 C 169.761719 167.855469 169.496094 167.726562 169.289062 167.472656 C 169.082031 167.214844 168.980469 166.917969 168.980469 166.578125 C 168.980469 166.15625 169.101562 165.792969 169.351562 165.488281 C 169.597656 165.183594 169.898438 165.03125 170.257812 165.03125 Z M 170.367188 167.539062 C 170.519531 167.539062 170.640625 167.496094 170.734375 167.40625 C 170.828125 167.316406 170.875 167.230469 170.875 167.152344 L 170.875 165.894531 C 170.875 165.640625 170.808594 165.460938 170.671875 165.355469 C 170.535156 165.25 170.402344 165.199219 170.273438 165.199219 C 170.027344 165.199219 169.835938 165.308594 169.699219 165.527344 C 169.5625 165.746094 169.496094 166.011719 169.496094 166.332031 C 169.496094 166.644531 169.566406 166.925781 169.714844 167.171875 C 169.859375 167.417969 170.078125 167.539062 170.367188 167.539062 Z M 172.765625 165.089844 L 172.765625 166.964844 C 172.765625 167.097656 172.78125 167.203125 172.820312 167.28125 C 172.890625 167.429688 173.023438 167.503906 173.21875 167.503906 C 173.351562 167.503906 173.480469 167.460938 173.609375 167.371094 C 173.679688 167.324219 173.753906 167.257812 173.828125 167.171875 L 173.828125 165.566406 C 173.828125 165.414062 173.796875 165.316406 173.742188 165.269531 C 173.683594 165.222656 173.5625 165.195312 173.390625 165.183594 L 173.390625 165.089844 L 174.335938 165.089844 L 174.335938 167.152344 C 174.335938 167.285156 174.359375 167.375 174.40625 167.425781 C 174.453125 167.472656 174.554688 167.496094 174.710938 167.488281 L 174.710938 167.574219 C 174.601562 167.601562 174.523438 167.625 174.472656 167.636719 C 174.421875 167.652344 174.335938 167.679688 174.21875 167.71875 C 174.167969 167.738281 174.054688 167.777344 173.882812 167.84375 C 173.875 167.84375 173.867188 167.839844 173.867188 167.832031 C 173.863281 167.824219 173.863281 167.8125 173.863281 167.800781 L 173.863281 167.328125 C 173.730469 167.488281 173.609375 167.605469 173.5 167.679688 C 173.335938 167.796875 173.15625 167.855469 172.972656 167.855469 C 172.804688 167.855469 172.640625 167.796875 172.492188 167.675781 C 172.339844 167.554688 172.265625 167.355469 172.265625 167.074219 L 172.265625 165.554688 C 172.265625 165.398438 172.230469 165.292969 172.164062 165.238281 C 172.121094 165.207031 172.03125 165.183594 171.890625 165.167969 L 171.890625 165.089844 Z M 176.328125 165.039062 C 176.570312 165.039062 176.78125 165.101562 176.957031 165.226562 C 177.132812 165.351562 177.222656 165.492188 177.222656 165.640625 C 177.222656 165.707031 177.203125 165.765625 177.15625 165.820312 C 177.109375 165.878906 177.042969 165.90625 176.949219 165.90625 C 176.878906 165.90625 176.820312 165.882812 176.769531 165.835938 C 176.71875 165.789062 176.679688 165.71875 176.65625 165.628906 L 176.621094 165.488281 C 176.59375 165.386719 176.550781 165.3125 176.488281 165.269531 C 176.421875 165.230469 176.339844 165.207031 176.234375 165.207031 C 176.011719 165.207031 175.824219 165.304688 175.667969 165.5 C 175.515625 165.695312 175.4375 165.953125 175.4375 166.273438 C 175.4375 166.570312 175.523438 166.832031 175.691406 167.066406 C 175.859375 167.300781 176.089844 167.417969 176.375 167.417969 C 176.578125 167.417969 176.761719 167.355469 176.917969 167.222656 C 177.007812 167.144531 177.109375 167.023438 177.222656 166.855469 L 177.304688 166.90625 C 177.195312 167.140625 177.078125 167.328125 176.953125 167.464844 C 176.71875 167.726562 176.445312 167.855469 176.132812 167.855469 C 175.828125 167.855469 175.558594 167.738281 175.324219 167.496094 C 175.089844 167.253906 174.972656 166.929688 174.972656 166.519531 C 174.972656 166.113281 175.101562 165.765625 175.359375 165.472656 C 175.613281 165.183594 175.9375 165.039062 176.328125 165.039062 Z M 179.027344 165.097656 L 179.027344 165.308594 L 178.429688 165.308594 L 178.421875 166.996094 C 178.421875 167.144531 178.4375 167.257812 178.460938 167.335938 C 178.507812 167.46875 178.601562 167.535156 178.734375 167.535156 C 178.804688 167.535156 178.867188 167.519531 178.917969 167.488281 C 178.96875 167.453125 179.03125 167.402344 179.097656 167.328125 L 179.171875 167.394531 L 179.109375 167.480469 C 179.007812 167.617188 178.898438 167.714844 178.785156 167.769531 C 178.671875 167.828125 178.5625 167.855469 178.457031 167.855469 C 178.226562 167.855469 178.070312 167.753906 177.988281 167.550781 C 177.945312 167.4375 177.921875 167.285156 177.921875 167.085938 L 177.921875 165.308594 L 177.601562 165.308594 C 177.59375 165.304688 177.585938 165.300781 177.582031 165.292969 C 177.578125 165.285156 177.574219 165.277344 177.574219 165.269531 C 177.574219 165.25 177.578125 165.234375 177.585938 165.222656 C 177.59375 165.214844 177.625 165.1875 177.671875 165.148438 C 177.804688 165.039062 177.902344 164.949219 177.960938 164.878906 C 178.019531 164.808594 178.160156 164.625 178.382812 164.328125 C 178.40625 164.328125 178.421875 164.332031 178.425781 164.335938 C 178.429688 164.339844 178.433594 164.355469 178.433594 164.378906 L 178.433594 165.097656 Z M 179.65625 164.019531 C 179.65625 163.933594 179.6875 163.863281 179.742188 163.800781 C 179.800781 163.742188 179.875 163.710938 179.960938 163.710938 C 180.046875 163.710938 180.117188 163.742188 180.175781 163.800781 C 180.234375 163.859375 180.265625 163.933594 180.265625 164.019531 C 180.265625 164.101562 180.234375 164.175781 180.175781 164.234375 C 180.117188 164.292969 180.046875 164.324219 179.960938 164.324219 C 179.875 164.324219 179.804688 164.292969 179.742188 164.234375 C 179.683594 164.175781 179.65625 164.101562 179.65625 164.019531 Z M 179.28125 167.71875 C 179.492188 167.699219 179.621094 167.664062 179.675781 167.613281 C 179.730469 167.558594 179.757812 167.417969 179.757812 167.191406 L 179.757812 165.792969 C 179.757812 165.667969 179.75 165.578125 179.734375 165.53125 C 179.703125 165.449219 179.640625 165.410156 179.546875 165.410156 C 179.527344 165.410156 179.503906 165.410156 179.484375 165.417969 C 179.464844 165.421875 179.40625 165.433594 179.308594 165.464844 L 179.308594 165.371094 L 179.433594 165.332031 C 179.773438 165.21875 180.015625 165.136719 180.148438 165.078125 C 180.203125 165.054688 180.238281 165.042969 180.253906 165.042969 C 180.257812 165.058594 180.257812 165.074219 180.257812 165.089844 L 180.257812 167.191406 C 180.257812 167.414062 180.285156 167.554688 180.339844 167.609375 C 180.394531 167.667969 180.515625 167.703125 180.703125 167.71875 L 180.703125 167.800781 L 179.28125 167.800781 Z M 180.984375 166.441406 C 180.984375 166.050781 181.109375 165.722656 181.355469 165.457031 C 181.601562 165.1875 181.917969 165.050781 182.308594 165.050781 C 182.695312 165.050781 183.015625 165.179688 183.269531 165.433594 C 183.523438 165.6875 183.652344 166.027344 183.652344 166.449219 C 183.652344 166.835938 183.527344 167.175781 183.28125 167.460938 C 183.035156 167.746094 182.714844 167.890625 182.324219 167.890625 C 181.949219 167.890625 181.632812 167.753906 181.375 167.480469 C 181.113281 167.203125 180.984375 166.855469 180.984375 166.441406 Z M 182.226562 165.230469 C 182.074219 165.230469 181.9375 165.277344 181.824219 165.378906 C 181.628906 165.558594 181.53125 165.863281 181.53125 166.300781 C 181.53125 166.648438 181.609375 166.972656 181.769531 167.273438 C 181.925781 167.574219 182.144531 167.722656 182.421875 167.722656 C 182.640625 167.722656 182.808594 167.625 182.929688 167.421875 C 183.046875 167.222656 183.105469 166.957031 183.105469 166.632812 C 183.105469 166.292969 183.03125 165.976562 182.878906 165.675781 C 182.730469 165.378906 182.511719 165.230469 182.226562 165.230469 Z M 183.941406 167.71875 C 184.078125 167.699219 184.175781 167.667969 184.230469 167.613281 C 184.285156 167.5625 184.316406 167.449219 184.316406 167.269531 L 184.316406 165.78125 C 184.316406 165.65625 184.304688 165.570312 184.28125 165.519531 C 184.242188 165.445312 184.167969 165.40625 184.050781 165.40625 C 184.035156 165.40625 184.015625 165.410156 183.996094 165.410156 C 183.980469 165.410156 183.957031 165.414062 183.929688 165.417969 L 183.929688 165.316406 C 184.007812 165.292969 184.199219 165.230469 184.496094 165.136719 L 184.773438 165.042969 C 184.785156 165.042969 184.792969 165.050781 184.796875 165.058594 C 184.800781 165.066406 184.800781 165.082031 184.800781 165.097656 L 184.800781 165.53125 C 184.980469 165.363281 185.121094 165.246094 185.222656 165.183594 C 185.375 165.089844 185.535156 165.042969 185.699219 165.042969 C 185.832031 165.042969 185.953125 165.078125 186.0625 165.15625 C 186.273438 165.304688 186.378906 165.566406 186.378906 165.949219 L 186.378906 167.316406 C 186.378906 167.457031 186.40625 167.558594 186.464844 167.621094 C 186.519531 167.683594 186.613281 167.714844 186.746094 167.71875 L 186.746094 167.800781 L 185.496094 167.800781 L 185.496094 167.71875 C 185.636719 167.699219 185.738281 167.660156 185.792969 167.601562 C 185.851562 167.542969 185.878906 167.410156 185.878906 167.210938 L 185.878906 165.960938 C 185.878906 165.792969 185.847656 165.652344 185.785156 165.542969 C 185.722656 165.433594 185.609375 165.378906 185.441406 165.378906 C 185.324219 165.378906 185.207031 165.417969 185.089844 165.496094 C 185.023438 165.539062 184.9375 165.613281 184.832031 165.71875 L 184.832031 167.359375 C 184.832031 167.5 184.863281 167.59375 184.925781 167.640625 C 184.988281 167.6875 185.085938 167.714844 185.222656 167.71875 L 185.222656 167.800781 L 183.941406 167.800781 Z M 163.171875 163.300781 "/>
<path style="fill:none;stroke-width:1;stroke-linecap:butt;stroke-linejoin:miter;stroke:rgb(0%,0%,0%);stroke-opacity:1;stroke-miterlimit:4;" d="M 171 -71.832031 C 171 -64.132812 171 -54.972656 171 -46.417969 " transform="matrix(1,0,0,1,4,184)"/>
<path style="fill-rule:nonzero;fill:rgb(0%,0%,0%);fill-opacity:1;stroke-width:1;stroke-linecap:butt;stroke-linejoin:miter;stroke:rgb(0%,0%,0%);stroke-opacity:1;stroke-miterlimit:4;" d="M 174.5 -46.414062 L 171 -36.414062 L 167.5 -46.414062 Z M 174.5 -46.414062 " transform="matrix(1,0,0,1,4,184)"/>
<path style="fill:none;stroke-width:1;stroke-linecap:butt;stroke-linejoin:miter;stroke:rgb(0%,0%,0%);stroke-opacity:1;stroke-miterlimit:4;" d="M 54 -18 C 54 -8.058594 41.910156 0 27 0 C 12.089844 0 0 -8.058594 0 -18 C 0 -27.941406 12.089844 -36 27 -36 C 41.910156 -36 54 -27.941406 54 -18 Z M 54 -18 " transform="matrix(1,0,0,1,4,184)"/>
<path style=" stroke:none;fill-rule:nonzero;fill:rgb(0%,0%,0%);fill-opacity:1;" d="M 28.363281 165.097656 L 28.363281 165.308594 L 27.765625 165.308594 L 27.757812 166.996094 C 27.757812 167.144531 27.773438 167.257812 27.796875 167.335938 C 27.84375 167.46875 27.9375 167.535156 28.070312 167.535156 C 28.140625 167.535156 28.203125 167.519531 28.253906 167.488281 C 28.304688 167.453125 28.367188 167.402344 28.433594 167.328125 L 28.507812 167.394531 L 28.445312 167.480469 C 28.34375 167.617188 28.234375 167.714844 28.121094 167.769531 C 28.007812 167.828125 27.898438 167.855469 27.792969 167.855469 C 27.5625 167.855469 27.40625 167.753906 27.324219 167.550781 C 27.28125 167.4375 27.257812 167.285156 27.257812 167.085938 L 27.257812 165.308594 L 26.9375 165.308594 C 26.929688 165.304688 26.921875 165.300781 26.917969 165.292969 C 26.914062 165.285156 26.910156 165.277344 26.910156 165.269531 C 26.910156 165.25 26.914062 165.234375 26.921875 165.222656 C 26.929688 165.214844 26.960938 165.1875 27.007812 165.148438 C 27.140625 165.039062 27.238281 164.949219 27.296875 164.878906 C 27.355469 164.808594 27.496094 164.625 27.71875 164.328125 C 27.742188 164.328125 27.757812 164.332031 27.761719 164.335938 C 27.765625 164.339844 27.769531 164.355469 27.769531 164.378906 L 27.769531 165.097656 Z M 29.878906 165.050781 C 30.152344 165.050781 30.394531 165.148438 30.601562 165.339844 C 30.808594 165.527344 30.910156 165.800781 30.910156 166.148438 L 29.050781 166.148438 C 29.070312 166.601562 29.175781 166.933594 29.359375 167.136719 C 29.542969 167.34375 29.765625 167.449219 30.019531 167.449219 C 30.222656 167.449219 30.394531 167.394531 30.535156 167.289062 C 30.675781 167.179688 30.808594 167.027344 30.925781 166.832031 L 31.027344 166.867188 C 30.949219 167.113281 30.800781 167.34375 30.578125 167.554688 C 30.359375 167.765625 30.089844 167.871094 29.773438 167.871094 C 29.40625 167.871094 29.121094 167.730469 28.921875 167.457031 C 28.722656 167.179688 28.621094 166.859375 28.621094 166.496094 C 28.621094 166.105469 28.738281 165.765625 28.96875 165.480469 C 29.203125 165.195312 29.503906 165.050781 29.878906 165.050781 Z M 29.707031 165.265625 C 29.484375 165.265625 29.316406 165.363281 29.199219 165.5625 C 29.136719 165.667969 29.089844 165.800781 29.0625 165.960938 L 30.300781 165.960938 C 30.277344 165.765625 30.242188 165.621094 30.1875 165.523438 C 30.09375 165.351562 29.933594 165.265625 29.707031 165.265625 Z M 31.476562 166.878906 L 31.570312 166.878906 C 31.617188 167.101562 31.675781 167.269531 31.753906 167.390625 C 31.890625 167.609375 32.089844 167.71875 32.351562 167.71875 C 32.5 167.71875 32.617188 167.679688 32.699219 167.597656 C 32.785156 167.515625 32.828125 167.410156 32.828125 167.28125 C 32.828125 167.199219 32.804688 167.121094 32.753906 167.042969 C 32.707031 166.96875 32.621094 166.894531 32.496094 166.824219 L 32.167969 166.636719 C 31.929688 166.507812 31.75 166.375 31.640625 166.246094 C 31.527344 166.113281 31.46875 165.960938 31.46875 165.78125 C 31.46875 165.5625 31.546875 165.382812 31.703125 165.242188 C 31.859375 165.101562 32.054688 165.03125 32.292969 165.03125 C 32.394531 165.03125 32.507812 165.050781 32.632812 165.089844 C 32.757812 165.128906 32.828125 165.148438 32.84375 165.148438 C 32.878906 165.148438 32.902344 165.144531 32.917969 165.136719 C 32.933594 165.125 32.949219 165.109375 32.960938 165.089844 L 33.03125 165.089844 L 33.050781 165.90625 L 32.960938 165.90625 C 32.921875 165.714844 32.867188 165.566406 32.800781 165.464844 C 32.679688 165.269531 32.507812 165.167969 32.277344 165.167969 C 32.140625 165.167969 32.03125 165.210938 31.953125 165.296875 C 31.875 165.378906 31.835938 165.480469 31.835938 165.589844 C 31.835938 165.769531 31.972656 165.933594 32.242188 166.074219 L 32.628906 166.28125 C 33.046875 166.507812 33.253906 166.769531 33.253906 167.070312 C 33.253906 167.300781 33.167969 167.488281 32.992188 167.636719 C 32.820312 167.785156 32.59375 167.855469 32.316406 167.855469 C 32.199219 167.855469 32.066406 167.835938 31.917969 167.796875 C 31.769531 167.757812 31.679688 167.738281 31.652344 167.738281 C 31.628906 167.738281 31.609375 167.746094 31.59375 167.765625 C 31.574219 167.78125 31.5625 167.800781 31.550781 167.824219 L 31.476562 167.824219 Z M 35.027344 165.097656 L 35.027344 165.308594 L 34.429688 165.308594 L 34.421875 166.996094 C 34.421875 167.144531 34.4375 167.257812 34.460938 167.335938 C 34.507812 167.46875 34.601562 167.535156 34.734375 167.535156 C 34.804688 167.535156 34.867188 167.519531 34.917969 167.488281 C 34.96875 167.453125 35.03125 167.402344 35.097656 167.328125 L 35.171875 167.394531 L 35.109375 167.480469 C 35.007812 167.617188 34.898438 167.714844 34.785156 167.769531 C 34.671875 167.828125 34.5625 167.855469 34.457031 167.855469 C 34.226562 167.855469 34.070312 167.753906 33.988281 167.550781 C 33.945312 167.4375 33.921875 167.285156 33.921875 167.085938 L 33.921875 165.308594 L 33.601562 165.308594 C 33.59375 165.304688 33.585938 165.300781 33.582031 165.292969 C 33.578125 165.285156 33.574219 165.277344 33.574219 165.269531 C 33.574219 165.25 33.578125 165.234375 33.585938 165.222656 C 33.59375 165.214844 33.625 165.1875 33.671875 165.148438 C 33.804688 165.039062 33.902344 164.949219 33.960938 164.878906 C 34.019531 164.808594 34.160156 164.625 34.382812 164.328125 C 34.40625 164.328125 34.421875 164.332031 34.425781 164.335938 C 34.429688 164.339844 34.433594 164.355469 34.433594 164.378906 L 34.433594 165.097656 Z M 26.835938 163.300781 "/>
<path style="fill:none;stroke-width:1;stroke-linecap:butt;stroke-linejoin:miter;stroke:rgb(0%,0%,0%);stroke-opacity:1;stroke-miterlimit:4;" d="M 143.914062 -18 C 121.53125 -18 89.503906 -18 64.628906 -18 " transform="matrix(1,0,0,1,4,184)"/>
<path style="fill-rule:nonzero;fill:rgb(0%,0%,0%);fill-opacity:1;stroke-width:1;stroke-linecap:butt;stroke-linejoin:miter;stroke:rgb(0%,0%,0%);stroke-opacity:1;stroke-miterlimit:4;" d="M 64.453125 -14.5 L 54.453125 -18 L 64.453125 -21.5 Z M 64.453125 -14.5 " transform="matrix(1,0,0,1,4,184)"/>
<path style="fill:none;stroke-width:1;stroke-linecap:butt;stroke-linejoin:miter;stroke:rgb(0%,0%,0%);stroke-opacity:1;stroke-miterlimit:4;" d="M 54 -90 C 54 -80.058594 41.910156 -72 27 -72 C 12.089844 -72 0 -80.058594 0 -90 C 0 -99.941406 12.089844 -108 27 -108 C 41.910156 -108 54 -99.941406 54 -90 Z M 54 -90 " transform="matrix(1,0,0,1,4,184)"/>
<path style=" stroke:none;fill-rule:nonzero;fill:rgb(0%,0%,0%);fill-opacity:1;" d="M 19.878906 93.050781 C 20.152344 93.050781 20.394531 93.148438 20.601562 93.339844 C 20.808594 93.527344 20.910156 93.800781 20.910156 94.148438 L 19.050781 94.148438 C 19.070312 94.601562 19.175781 94.933594 19.359375 95.136719 C 19.542969 95.34375 19.765625 95.449219 20.019531 95.449219 C 20.222656 95.449219 20.394531 95.394531 20.535156 95.289062 C 20.675781 95.179688 20.808594 95.027344 20.925781 94.832031 L 21.027344 94.867188 C 20.949219 95.113281 20.800781 95.34375 20.578125 95.554688 C 20.359375 95.765625 20.089844 95.871094 19.773438 95.871094 C 19.40625 95.871094 19.121094 95.730469 18.921875 95.457031 C 18.722656 95.179688 18.621094 94.859375 18.621094 94.496094 C 18.621094 94.105469 18.738281 93.765625 18.96875 93.480469 C 19.203125 93.195312 19.503906 93.050781 19.878906 93.050781 Z M 19.707031 93.265625 C 19.484375 93.265625 19.316406 93.363281 19.199219 93.5625 C 19.136719 93.667969 19.089844 93.800781 19.0625 93.960938 L 20.300781 93.960938 C 20.277344 93.765625 20.242188 93.621094 20.1875 93.523438 C 20.09375 93.351562 19.933594 93.265625 19.707031 93.265625 Z M 22.457031 93.078125 L 22.457031 93.167969 C 22.355469 93.179688 22.285156 93.199219 22.242188 93.214844 C 22.199219 93.234375 22.179688 93.277344 22.179688 93.347656 C 22.179688 93.378906 22.183594 93.40625 22.191406 93.433594 C 22.199219 93.464844 22.214844 93.503906 22.238281 93.558594 L 22.847656 95.074219 L 23.375 93.730469 C 23.398438 93.667969 23.421875 93.601562 23.445312 93.53125 C 23.46875 93.460938 23.480469 93.40625 23.480469 93.371094 C 23.480469 93.292969 23.441406 93.238281 23.371094 93.207031 C 23.328125 93.1875 23.269531 93.175781 23.195312 93.167969 L 23.195312 93.078125 L 24.027344 93.078125 L 24.027344 93.167969 C 23.933594 93.175781 23.863281 93.210938 23.820312 93.265625 C 23.777344 93.320312 23.71875 93.449219 23.636719 93.652344 L 22.792969 95.761719 C 22.777344 95.796875 22.761719 95.824219 22.753906 95.835938 C 22.742188 95.847656 22.730469 95.855469 22.710938 95.855469 C 22.691406 95.855469 22.675781 95.84375 22.660156 95.824219 C 22.648438 95.800781 22.632812 95.773438 22.617188 95.738281 L 21.722656 93.59375 C 21.648438 93.421875 21.574219 93.300781 21.488281 93.238281 C 21.441406 93.203125 21.371094 93.183594 21.277344 93.167969 L 21.277344 93.078125 Z M 25.886719 94.175781 C 25.664062 94.25 25.476562 94.332031 25.332031 94.425781 C 25.050781 94.597656 24.910156 94.792969 24.910156 95.015625 C 24.910156 95.191406 24.96875 95.324219 25.085938 95.410156 C 25.160156 95.464844 25.246094 95.488281 25.339844 95.488281 C 25.46875 95.488281 25.59375 95.453125 25.710938 95.382812 C 25.828125 95.308594 25.886719 95.21875 25.886719 95.105469 Z M 24.386719 95.21875 C 24.386719 94.933594 24.527344 94.699219 24.8125 94.507812 C 24.992188 94.390625 25.351562 94.230469 25.886719 94.03125 L 25.886719 93.78125 C 25.886719 93.582031 25.867188 93.445312 25.828125 93.367188 C 25.761719 93.234375 25.625 93.167969 25.417969 93.167969 C 25.316406 93.167969 25.222656 93.195312 25.132812 93.246094 C 25.042969 93.300781 24.996094 93.371094 24.996094 93.464844 C 24.996094 93.488281 25.003906 93.527344 25.011719 93.582031 C 25.019531 93.636719 25.027344 93.671875 25.027344 93.6875 C 25.027344 93.796875 24.988281 93.875 24.917969 93.917969 C 24.878906 93.941406 24.828125 93.957031 24.769531 93.957031 C 24.683594 93.957031 24.617188 93.925781 24.570312 93.867188 C 24.523438 93.808594 24.5 93.746094 24.5 93.675781 C 24.5 93.539062 24.582031 93.398438 24.753906 93.246094 C 24.921875 93.097656 25.167969 93.023438 25.496094 93.023438 C 25.875 93.023438 26.128906 93.144531 26.265625 93.394531 C 26.339844 93.527344 26.375 93.722656 26.375 93.980469 L 26.375 95.15625 C 26.375 95.269531 26.382812 95.347656 26.398438 95.390625 C 26.421875 95.464844 26.476562 95.503906 26.554688 95.503906 C 26.601562 95.503906 26.636719 95.496094 26.667969 95.484375 C 26.695312 95.472656 26.746094 95.4375 26.820312 95.386719 L 26.820312 95.535156 C 26.757812 95.613281 26.691406 95.675781 26.617188 95.722656 C 26.507812 95.796875 26.394531 95.835938 26.285156 95.835938 C 26.152344 95.835938 26.054688 95.792969 25.996094 95.707031 C 25.933594 95.621094 25.902344 95.519531 25.894531 95.398438 C 25.746094 95.527344 25.621094 95.625 25.515625 95.6875 C 25.339844 95.792969 25.167969 95.84375 25.007812 95.84375 C 24.839844 95.84375 24.695312 95.785156 24.574219 95.667969 C 24.449219 95.550781 24.386719 95.398438 24.386719 95.21875 Z M 26.953125 95.71875 C 27.132812 95.699219 27.257812 95.664062 27.320312 95.609375 C 27.382812 95.554688 27.417969 95.445312 27.417969 95.28125 L 27.417969 92.417969 C 27.417969 92.289062 27.40625 92.203125 27.382812 92.152344 C 27.34375 92.070312 27.265625 92.03125 27.148438 92.03125 C 27.121094 92.03125 27.089844 92.035156 27.058594 92.039062 C 27.027344 92.042969 26.984375 92.054688 26.9375 92.066406 L 26.9375 91.96875 C 27.199219 91.898438 27.515625 91.804688 27.890625 91.6875 C 27.902344 91.6875 27.910156 91.691406 27.914062 91.707031 C 27.917969 91.71875 27.917969 91.742188 27.917969 91.78125 L 27.917969 95.292969 C 27.917969 95.464844 27.945312 95.574219 28.007812 95.625 C 28.066406 95.675781 28.1875 95.707031 28.367188 95.71875 L 28.367188 95.800781 L 26.953125 95.800781 Z M 29.425781 93.089844 L 29.425781 94.964844 C 29.425781 95.097656 29.441406 95.203125 29.480469 95.28125 C 29.550781 95.429688 29.683594 95.503906 29.878906 95.503906 C 30.011719 95.503906 30.140625 95.460938 30.269531 95.371094 C 30.339844 95.324219 30.414062 95.257812 30.488281 95.171875 L 30.488281 93.566406 C 30.488281 93.414062 30.457031 93.316406 30.402344 93.269531 C 30.34375 93.222656 30.222656 93.195312 30.050781 93.183594 L 30.050781 93.089844 L 30.996094 93.089844 L 30.996094 95.152344 C 30.996094 95.285156 31.019531 95.375 31.066406 95.425781 C 31.113281 95.472656 31.214844 95.496094 31.371094 95.488281 L 31.371094 95.574219 C 31.261719 95.601562 31.183594 95.625 31.132812 95.636719 C 31.082031 95.652344 30.996094 95.679688 30.878906 95.71875 C 30.828125 95.738281 30.714844 95.777344 30.542969 95.84375 C 30.535156 95.84375 30.527344 95.839844 30.527344 95.832031 C 30.523438 95.824219 30.523438 95.8125 30.523438 95.800781 L 30.523438 95.328125 C 30.390625 95.488281 30.269531 95.605469 30.160156 95.679688 C 29.996094 95.796875 29.816406 95.855469 29.632812 95.855469 C 29.464844 95.855469 29.300781 95.796875 29.152344 95.675781 C 29 95.554688 28.925781 95.355469 28.925781 95.074219 L 28.925781 93.554688 C 28.925781 93.398438 28.890625 93.292969 28.824219 93.238281 C 28.78125 93.207031 28.691406 93.183594 28.550781 93.167969 L 28.550781 93.089844 Z M 33.214844 94.175781 C 32.992188 94.25 32.804688 94.332031 32.660156 94.425781 C 32.378906 94.597656 32.238281 94.792969 32.238281 95.015625 C 32.238281 95.191406 32.296875 95.324219 32.414062 95.410156 C 32.488281 95.464844 32.574219 95.488281 32.667969 95.488281 C 32.796875 95.488281 32.921875 95.453125 33.039062 95.382812 C 33.15625 95.308594 33.214844 95.21875 33.214844 95.105469 Z M 31.714844 95.21875 C 31.714844 94.933594 31.855469 94.699219 32.140625 94.507812 C 32.320312 94.390625 32.679688 94.230469 33.214844 94.03125 L 33.214844 93.78125 C 33.214844 93.582031 33.195312 93.445312 33.15625 93.367188 C 33.089844 93.234375 32.953125 93.167969 32.746094 93.167969 C 32.644531 93.167969 32.550781 93.195312 32.460938 93.246094 C 32.371094 93.300781 32.324219 93.371094 32.324219 93.464844 C 32.324219 93.488281 32.332031 93.527344 32.339844 93.582031 C 32.347656 93.636719 32.355469 93.671875 32.355469 93.6875 C 32.355469 93.796875 32.316406 93.875 32.246094 93.917969 C 32.207031 93.941406 32.15625 93.957031 32.097656 93.957031 C 32.011719 93.957031 31.945312 93.925781 31.898438 93.867188 C 31.851562 93.808594 31.828125 93.746094 31.828125 93.675781 C 31.828125 93.539062 31.910156 93.398438 32.082031 93.246094 C 32.25 93.097656 32.496094 93.023438 32.824219 93.023438 C 33.203125 93.023438 33.457031 93.144531 33.59375 93.394531 C 33.667969 93.527344 33.703125 93.722656 33.703125 93.980469 L 33.703125 95.15625 C 33.703125 95.269531 33.710938 95.347656 33.726562 95.390625 C 33.75 95.464844 33.804688 95.503906 33.882812 95.503906 C 33.929688 95.503906 33.964844 95.496094 33.996094 95.484375 C 34.023438 95.472656 34.074219 95.4375 34.148438 95.386719 L 34.148438 95.535156 C 34.085938 95.613281 34.019531 95.675781 33.945312 95.722656 C 33.835938 95.796875 33.722656 95.835938 33.613281 95.835938 C 33.480469 95.835938 33.382812 95.792969 33.324219 95.707031 C 33.261719 95.621094 33.230469 95.519531 33.222656 95.398438 C 33.074219 95.527344 32.949219 95.625 32.84375 95.6875 C 32.667969 95.792969 32.496094 95.84375 32.335938 95.84375 C 32.167969 95.84375 32.023438 95.785156 31.902344 95.667969 C 31.777344 95.550781 31.714844 95.398438 31.714844 95.21875 Z M 35.6875 93.097656 L 35.6875 93.308594 L 35.089844 93.308594 L 35.082031 94.996094 C 35.082031 95.144531 35.097656 95.257812 35.121094 95.335938 C 35.167969 95.46875 35.261719 95.535156 35.394531 95.535156 C 35.464844 95.535156 35.527344 95.519531 35.578125 95.488281 C 35.628906 95.453125 35.691406 95.402344 35.757812 95.328125 L 35.832031 95.394531 L 35.769531 95.480469 C 35.667969 95.617188 35.558594 95.714844 35.445312 95.769531 C 35.332031 95.828125 35.222656 95.855469 35.117188 95.855469 C 34.886719 95.855469 34.730469 95.753906 34.648438 95.550781 C 34.605469 95.4375 34.582031 95.285156 34.582031 95.085938 L 34.582031 93.308594 L 34.261719 93.308594 C 34.253906 93.304688 34.246094 93.300781 34.242188 93.292969 C 34.238281 93.285156 34.234375 93.277344 34.234375 93.269531 C 34.234375 93.25 34.238281 93.234375 34.246094 93.222656 C 34.253906 93.214844 34.285156 93.1875 34.332031 93.148438 C 34.464844 93.039062 34.5625 92.949219 34.621094 92.878906 C 34.679688 92.808594 34.820312 92.625 35.042969 92.328125 C 35.066406 92.328125 35.082031 92.332031 35.085938 92.335938 C 35.089844 92.339844 35.09375 92.355469 35.09375 92.378906 L 35.09375 93.097656 Z M 36.320312 92.019531 C 36.320312 91.933594 36.351562 91.863281 36.40625 91.800781 C 36.464844 91.742188 36.539062 91.710938 36.625 91.710938 C 36.710938 91.710938 36.78125 91.742188 36.839844 91.800781 C 36.898438 91.859375 36.929688 91.933594 36.929688 92.019531 C 36.929688 92.101562 36.898438 92.175781 36.839844 92.234375 C 36.78125 92.292969 36.710938 92.324219 36.625 92.324219 C 36.539062 92.324219 36.46875 92.292969 36.40625 92.234375 C 36.347656 92.175781 36.320312 92.101562 36.320312 92.019531 Z M 35.945312 95.71875 C 36.15625 95.699219 36.285156 95.664062 36.339844 95.613281 C 36.394531 95.558594 36.421875 95.417969 36.421875 95.191406 L 36.421875 93.792969 C 36.421875 93.667969 36.414062 93.578125 36.398438 93.53125 C 36.367188 93.449219 36.304688 93.410156 36.210938 93.410156 C 36.191406 93.410156 36.167969 93.410156 36.148438 93.417969 C 36.128906 93.421875 36.070312 93.433594 35.972656 93.464844 L 35.972656 93.371094 L 36.097656 93.332031 C 36.4375 93.21875 36.679688 93.136719 36.8125 93.078125 C 36.867188 93.054688 36.902344 93.042969 36.917969 93.042969 C 36.921875 93.058594 36.921875 93.074219 36.921875 93.089844 L 36.921875 95.191406 C 36.921875 95.414062 36.949219 95.554688 37.003906 95.609375 C 37.058594 95.667969 37.179688 95.703125 37.367188 95.71875 L 37.367188 95.800781 L 35.945312 95.800781 Z M 37.644531 94.441406 C 37.644531 94.050781 37.769531 93.722656 38.015625 93.457031 C 38.261719 93.1875 38.578125 93.050781 38.96875 93.050781 C 39.355469 93.050781 39.675781 93.179688 39.929688 93.433594 C 40.183594 93.6875 40.3125 94.027344 40.3125 94.449219 C 40.3125 94.835938 40.1875 95.175781 39.941406 95.460938 C 39.695312 95.746094 39.375 95.890625 38.984375 95.890625 C 38.609375 95.890625 38.292969 95.753906 38.035156 95.480469 C 37.773438 95.203125 37.644531 94.855469 37.644531 94.441406 Z M 38.886719 93.230469 C 38.734375 93.230469 38.597656 93.277344 38.484375 93.378906 C 38.289062 93.558594 38.191406 93.863281 38.191406 94.300781 C 38.191406 94.648438 38.269531 94.972656 38.429688 95.273438 C 38.585938 95.574219 38.804688 95.722656 39.082031 95.722656 C 39.300781 95.722656 39.46875 95.625 39.589844 95.421875 C 39.707031 95.222656 39.765625 94.957031 39.765625 94.632812 C 39.765625 94.292969 39.691406 93.976562 39.539062 93.675781 C 39.390625 93.378906 39.171875 93.230469 38.886719 93.230469 Z M 40.601562 95.71875 C 40.738281 95.699219 40.835938 95.667969 40.890625 95.613281 C 40.945312 95.5625 40.976562 95.449219 40.976562 95.269531 L 40.976562 93.78125 C 40.976562 93.65625 40.964844 93.570312 40.941406 93.519531 C 40.902344 93.445312 40.828125 93.40625 40.710938 93.40625 C 40.695312 93.40625 40.675781 93.410156 40.65625 93.410156 C 40.640625 93.410156 40.617188 93.414062 40.589844 93.417969 L 40.589844 93.316406 C 40.667969 93.292969 40.859375 93.230469 41.15625 93.136719 L 41.433594 93.042969 C 41.445312 93.042969 41.453125 93.050781 41.457031 93.058594 C 41.460938 93.066406 41.460938 93.082031 41.460938 93.097656 L 41.460938 93.53125 C 41.640625 93.363281 41.78125 93.246094 41.882812 93.183594 C 42.035156 93.089844 42.195312 93.042969 42.359375 93.042969 C 42.492188 93.042969 42.613281 93.078125 42.722656 93.15625 C 42.933594 93.304688 43.039062 93.566406 43.039062 93.949219 L 43.039062 95.316406 C 43.039062 95.457031 43.066406 95.558594 43.125 95.621094 C 43.179688 95.683594 43.273438 95.714844 43.40625 95.71875 L 43.40625 95.800781 L 42.15625 95.800781 L 42.15625 95.71875 C 42.296875 95.699219 42.398438 95.660156 42.453125 95.601562 C 42.511719 95.542969 42.539062 95.410156 42.539062 95.210938 L 42.539062 93.960938 C 42.539062 93.792969 42.507812 93.652344 42.445312 93.542969 C 42.382812 93.433594 42.269531 93.378906 42.101562 93.378906 C 41.984375 93.378906 41.867188 93.417969 41.75 93.496094 C 41.683594 93.539062 41.597656 93.613281 41.492188 93.71875 L 41.492188 95.359375 C 41.492188 95.5 41.523438 95.59375 41.585938 95.640625 C 41.648438 95.6875 41.746094 95.714844 41.882812 95.71875 L 41.882812 95.800781 L 40.601562 95.800781 Z M 18.503906 91.300781 "/>
<path style="fill:none;stroke-width:1;stroke-linecap:butt;stroke-linejoin:miter;stroke:rgb(0%,0%,0%);stroke-opacity:1;stroke-miterlimit:4;" d="M 27 -36.167969 C 27 -43.867188 27 -53.027344 27 -61.582031 " transform="matrix(1,0,0,1,4,184)"/>
<path style="fill-rule:nonzero;fill:rgb(0%,0%,0%);fill-opacity:1;stroke-width:1;stroke-linecap:butt;stroke-linejoin:miter;stroke:rgb(0%,0%,0%);stroke-opacity:1;stroke-miterlimit:4;" d="M 23.5 -61.585938 L 27 -71.585938 L 30.5 -61.585938 Z M 23.5 -61.585938 " transform="matrix(1,0,0,1,4,184)"/>
<path style="fill:none;stroke-width:1;stroke-linecap:butt;stroke-linejoin:miter;stroke:rgb(0%,0%,0%);stroke-opacity:1;stroke-miterlimit:4;" d="M 42.269531 -105.269531 C 52.195312 -115.195312 65.316406 -128.316406 76.4375 -139.4375 " transform="matrix(1,0,0,1,4,184)"/>
<path style="fill-rule:nonzero;fill:rgb(0%,0%,0%);fill-opacity:1;stroke-width:1;stroke-linecap:butt;stroke-linejoin:miter;stroke:rgb(0%,0%,0%);stroke-opacity:1;stroke-miterlimit:4;" d="M 74.207031 -142.15625 L 83.753906 -146.753906 L 79.15625 -137.207031 Z M 74.207031 -142.15625 " transform="matrix(1,0,0,1,4,184)"/>
</g>
</svg>
